<?xml version="1.0" encoding="UTF-8"?>
<svg id="Calque_2" data-name="Calque 2" xmlns="http://www.w3.org/2000/svg" viewBox="0 0 306.37 72.92">
  <defs>
    <style>
      .cls-1 {
        fill: #60bcad;
      }

      .cls-2 {
        fill: #231f20;
      }
    </style>
  </defs>
  <g id="Calque_1-2" data-name="Calque 1">
    <g>
      <g>
        <path class="cls-2" d="M20.43,13.97c-.11.11-.26.17-.45.17H7.84c-.14,0-.2.07-.2.21v3.89c0,.14.07.21.2.21h7.51c.19,0,.34.06.45.17s.16.26.16.46v5.39c0,.19-.05.35-.16.46-.11.11-.26.17-.45.17h-7.51c-.14,0-.2.07-.2.21v4.31c0,.14.07.21.2.21h12.14c.19,0,.34.06.45.17s.16.26.16.46v5.43c0,.19-.05.35-.16.46-.11.11-.26.17-.45.17H.61c-.19,0-.34-.05-.45-.17-.11-.11-.16-.26-.16-.46V8.13c0-.19.05-.34.16-.46.11-.11.26-.17.45-.17h19.37c.19,0,.34.06.45.17s.16.26.16.46v5.43c0,.19-.05.35-.16.46v-.05h0ZM6.97,4.79c-.1-.15-.09-.32.02-.52l1.99-3.81c.13-.3.38-.46.73-.46h5.48c.32,0,.49.12.49.37,0,.11-.04.23-.12.37l-2.84,3.89c-.16.25-.41.37-.73.37h-4.55c-.22,0-.37-.08-.47-.23v.02h0Z"/>
        <path class="cls-2" d="M28.12,35.48c-1.69-.88-3-2.13-3.94-3.75s-1.4-3.49-1.4-5.61v-8.37c0-2.1.47-3.95,1.4-5.55s2.25-2.84,3.94-3.73c1.69-.88,3.65-1.33,5.87-1.33s4.18.41,5.87,1.24,3,2,3.94,3.5,1.4,3.25,1.4,5.24c0,.25-.2.4-.61.46l-6.42.41h-.12c-.32,0-.49-.15-.49-.46,0-1.13-.32-2.04-.97-2.71-.65-.68-1.52-1.01-2.6-1.01s-1.95.34-2.6,1.01c-.65.68-.97,1.58-.97,2.71v8.91c0,1.11.32,2,.97,2.67.65.68,1.52,1.01,2.6,1.01s1.95-.34,2.6-1.01c.65-.68.97-1.57.97-2.67,0-.17.05-.29.16-.37s.26-.11.45-.08l6.42.33c.41.03.61.17.61.41,0,1.99-.47,3.74-1.4,5.26s-2.25,2.7-3.94,3.54c-1.69.84-3.65,1.26-5.87,1.26s-4.18-.44-5.87-1.33v.02h0Z"/>
        <path class="cls-2" d="M62.41,7.63c.11-.11.26-.17.45-.17h6.42c.19,0,.34.06.45.17s.16.26.16.46v27.76c0,.19-.05.35-.16.46-.11.11-.26.17-.45.17h-6.42c-.19,0-.34-.05-.45-.17-.11-.11-.16-.26-.16-.46v-10.52c0-.14-.07-.21-.2-.21h-6.33c-.14,0-.2.07-.2.21v10.52c0,.19-.05.35-.16.46-.11.11-.26.17-.45.17h-6.42c-.19,0-.34-.05-.45-.17-.11-.11-.16-.26-.16-.46V8.09c0-.19.05-.34.16-.46.11-.11.26-.17.45-.17h6.42c.19,0,.34.06.45.17s.16.26.16.46v10.15c0,.14.07.21.2.21h6.33c.14,0,.2-.07.2-.21v-10.15c0-.19.05-.34.16-.46Z"/>
        <path class="cls-2" d="M77.74,35.58c-1.72-.93-3.05-2.22-4-3.9-.95-1.67-1.42-3.61-1.42-5.82v-7.79c0-2.16.47-4.06,1.42-5.72s2.28-2.94,4-3.85,3.7-1.37,5.95-1.37,4.27.46,5.99,1.37,3.05,2.2,4,3.85c.95,1.66,1.42,3.56,1.42,5.72v7.79c0,2.21-.47,4.15-1.42,5.82s-2.28,2.97-4,3.9c-1.72.92-3.72,1.39-5.99,1.39s-4.23-.46-5.95-1.39ZM86.43,29.16c.69-.76,1.04-1.77,1.04-3.04v-8.12c0-1.27-.35-2.29-1.04-3.05-.69-.76-1.6-1.14-2.74-1.14s-2.01.38-2.7,1.14-1.04,1.78-1.04,3.05v8.12c0,1.27.35,2.29,1.04,3.04.69.76,1.59,1.14,2.7,1.14s2.05-.38,2.74-1.14Z"/>
        <path class="cls-2" d="M102.69,35.66c-1.71-.76-3.02-1.84-3.96-3.25s-1.4-3.04-1.4-4.89v-.58c0-.19.05-.34.16-.46.11-.11.26-.17.45-.17h6.29c.19,0,.34.06.45.17.11.11.16.26.16.46v.25c0,.77.4,1.46,1.2,2.05.8.59,1.86.89,3.19.89,1,0,1.72-.21,2.15-.64s.65-.9.65-1.43c0-.61-.27-1.06-.81-1.37-.54-.3-1.53-.68-2.96-1.12l-1.18-.33c-2.68-.83-4.93-1.93-6.74-3.31-1.81-1.38-2.72-3.38-2.72-6.01,0-1.74.46-3.28,1.38-4.62.92-1.34,2.19-2.37,3.8-3.09,1.61-.72,3.42-1.08,5.42-1.08,2.11,0,4.03.4,5.75,1.2s3.07,1.93,4.06,3.4c.99,1.46,1.48,3.14,1.48,5.01v.37c0,.19-.05.35-.16.46-.11.11-.26.17-.45.17h-6.29c-.19,0-.34-.05-.45-.17-.11-.11-.16-.26-.16-.46v-.04c0-.83-.37-1.58-1.1-2.26s-1.72-1.01-2.96-1.01c-.87,0-1.55.18-2.05.54s-.75.86-.75,1.49c0,.5.18.92.55,1.26.37.35.93.68,1.69.99.76.32,1.92.72,3.49,1.22.22.08,1.17.38,2.86.89,1.69.51,3.11,1.44,4.24,2.78,1.14,1.34,1.71,2.96,1.71,4.87s-.46,3.45-1.38,4.79c-.92,1.34-2.21,2.37-3.86,3.09-1.65.72-3.57,1.08-5.77,1.08s-4.26-.38-5.97-1.14h-.01Z"/>
        <path class="cls-2" d="M130.63,36.3c-.11-.11-.16-.26-.16-.46V8.08c0-.19.05-.34.16-.46.11-.11.26-.17.45-.17h10.44c2.19,0,4.13.39,5.83,1.16,1.69.77,3,1.86,3.92,3.27.92,1.41,1.38,3.04,1.38,4.89v10.36c0,1.85-.46,3.48-1.38,4.89-.92,1.41-2.23,2.5-3.92,3.27s-3.63,1.16-5.83,1.16h-10.44c-.19,0-.34-.05-.45-.17v.02ZM138.3,29.8h3.49c.92,0,1.68-.37,2.27-1.1.6-.73.91-1.69.93-2.88v-7.71c0-1.19-.3-2.15-.89-2.88-.6-.73-1.38-1.1-2.35-1.1h-3.45c-.14,0-.2.07-.2.21v15.25c0,.14.07.21.2.21h0Z"/>
        <path class="cls-2" d="M160.7,35.52c-1.69-.86-3-2.07-3.92-3.65-.92-1.57-1.38-3.4-1.38-5.47V8.09c0-.19.05-.34.16-.46.11-.11.26-.17.45-.17h6.42c.19,0,.34.06.45.17.11.11.16.26.16.46v18.31c0,1.13.32,2.04.95,2.71.64.68,1.48,1.01,2.54,1.01s1.86-.34,2.5-1.04c.64-.69.95-1.59.95-2.69V8.08c0-.19.05-.34.16-.46.11-.11.26-.17.45-.17h6.42c.19,0,.34.06.45.17.11.11.16.26.16.46v18.31c0,2.07-.46,3.89-1.38,5.47-.92,1.58-2.22,2.79-3.9,3.65-1.68.86-3.61,1.28-5.81,1.28s-4.14-.43-5.83-1.28h0Z"/>
        <path class="cls-2" d="M206.19,8.65c1.46.79,2.59,1.91,3.39,3.36.8,1.45,1.2,3.11,1.2,4.99s-.42,3.48-1.26,4.89c-.84,1.41-2.02,2.5-3.53,3.27-1.52.77-3.26,1.16-5.24,1.16h-4.3c-.14,0-.2.07-.2.21v9.32c0,.19-.05.35-.16.46-.11.11-.26.17-.45.17h-6.42c-.19,0-.34-.05-.45-.17-.11-.11-.16-.26-.16-.46V8.09c0-.19.05-.34.16-.46.11-.11.26-.17.45-.17h11.9c1.92,0,3.61.39,5.08,1.18h0ZM202.28,19.29c.61-.54.91-1.25.91-2.13s-.3-1.64-.91-2.2c-.61-.55-1.41-.83-2.42-.83h-3.41c-.14,0-.2.07-.2.21v5.55c0,.14.07.21.2.21h3.41c1,0,1.81-.27,2.42-.81Z"/>
        <path class="cls-2" d="M228.24,35.93l-.89-3.23c-.05-.11-.12-.17-.2-.17h-8.61c-.08,0-.15.06-.2.17l-.89,3.23c-.08.36-.31.54-.69.54h-6.94c-.49,0-.66-.23-.53-.7l8.57-27.8c.11-.33.34-.5.69-.5h8.61c.35,0,.58.17.69.5l8.57,27.8c.03.06.04.14.04.25,0,.3-.19.46-.57.46h-6.94c-.38,0-.61-.18-.69-.54h-.02,0ZM220.28,26.57h5.08c.16,0,.22-.08.16-.25l-2.6-9.28c-.03-.08-.07-.12-.12-.12s-.1.04-.12.12l-2.56,9.28c-.03.17.03.25.16.25Z"/>
        <path class="cls-2" d="M241.68,35.66c-1.71-.76-3.02-1.84-3.96-3.25s-1.4-3.04-1.4-4.89v-.58c0-.19.05-.34.16-.46.11-.11.26-.17.45-.17h6.29c.19,0,.34.06.45.17.11.11.16.26.16.46v.25c0,.77.4,1.46,1.2,2.05.8.59,1.86.89,3.19.89,1,0,1.72-.21,2.15-.64s.65-.9.65-1.43c0-.61-.27-1.06-.81-1.37-.54-.3-1.53-.68-2.96-1.12l-1.18-.33c-2.68-.83-4.93-1.93-6.74-3.31s-2.72-3.38-2.72-6.01c0-1.74.46-3.28,1.38-4.62.92-1.34,2.19-2.37,3.8-3.09,1.61-.72,3.42-1.08,5.42-1.08,2.11,0,4.03.4,5.75,1.2s3.07,1.93,4.06,3.4c.99,1.46,1.48,3.14,1.48,5.01v.37c0,.19-.05.35-.16.46-.11.11-.26.17-.45.17h-6.29c-.19,0-.34-.05-.45-.17-.11-.11-.16-.26-.16-.46v-.04c0-.83-.37-1.58-1.1-2.26s-1.72-1.01-2.96-1.01c-.87,0-1.55.18-2.05.54s-.75.86-.75,1.49c0,.5.18.92.55,1.26.37.35.93.68,1.69.99.76.32,1.92.72,3.49,1.22.22.08,1.17.38,2.86.89,1.69.51,3.11,1.44,4.24,2.78,1.14,1.34,1.71,2.96,1.71,4.87s-.46,3.45-1.38,4.79c-.92,1.34-2.21,2.37-3.86,3.09-1.65.72-3.57,1.08-5.77,1.08s-4.26-.38-5.97-1.14h-.01Z"/>
        <path class="cls-2" d="M266.13,35.66c-1.71-.76-3.02-1.84-3.96-3.25s-1.4-3.04-1.4-4.89v-.58c0-.19.05-.34.16-.46.11-.11.26-.17.45-.17h6.29c.19,0,.34.06.45.17.11.11.16.26.16.46v.25c0,.77.4,1.46,1.2,2.05.8.59,1.86.89,3.19.89,1,0,1.72-.21,2.15-.64s.65-.9.65-1.43c0-.61-.27-1.06-.81-1.37-.54-.3-1.53-.68-2.96-1.12l-1.18-.33c-2.68-.83-4.93-1.93-6.74-3.31s-2.72-3.38-2.72-6.01c0-1.74.46-3.28,1.38-4.62.92-1.34,2.19-2.37,3.8-3.09,1.61-.72,3.42-1.08,5.42-1.08,2.11,0,4.03.4,5.75,1.2s3.07,1.93,4.06,3.4c.99,1.46,1.48,3.14,1.48,5.01v.37c0,.19-.05.35-.16.46-.11.11-.26.17-.45.17h-6.29c-.19,0-.34-.05-.45-.17-.11-.11-.16-.26-.16-.46v-.04c0-.83-.37-1.58-1.1-2.26s-1.72-1.01-2.96-1.01c-.87,0-1.55.18-2.05.54s-.75.86-.75,1.49c0,.5.18.92.55,1.26.37.35.93.68,1.69.99.76.32,1.92.72,3.49,1.22.22.08,1.17.38,2.86.89,1.69.51,3.11,1.44,4.24,2.78,1.14,1.34,1.71,2.96,1.71,4.87s-.46,3.45-1.38,4.79c-.92,1.34-2.21,2.37-3.86,3.09-1.65.72-3.57,1.08-5.77,1.08s-4.26-.38-5.97-1.14h-.01Z"/>
        <path class="cls-2" d="M306.2,13.97c-.11.11-.26.17-.45.17h-12.14c-.14,0-.2.07-.2.21v3.89c0,.14.07.21.2.21h7.51c.19,0,.34.06.45.17.11.11.16.26.16.46v5.39c0,.19-.05.35-.16.46-.11.11-.26.17-.45.17h-7.51c-.14,0-.2.07-.2.21v4.31c0,.14.07.21.2.21h12.14c.19,0,.34.06.45.17.11.11.16.26.16.46v5.43c0,.19-.05.35-.16.46-.11.11-.26.17-.45.17h-19.37c-.19,0-.34-.05-.45-.17-.11-.11-.16-.26-.16-.46V8.13c0-.19.05-.34.16-.46.11-.11.26-.17.45-.17h19.37c.19,0,.34.06.45.17.11.11.16.26.16.46v5.43c0,.19-.05.35-.16.46v-.05h0ZM292.74,4.79c-.1-.15-.09-.32.02-.52l1.99-3.81c.13-.3.38-.46.73-.46h5.48c.32,0,.49.12.49.37,0,.11-.04.23-.12.37l-2.84,3.89c-.16.25-.41.37-.73.37h-4.55c-.22,0-.37-.08-.47-.23v.02Z"/>
      </g>
      <g>
        <path class="cls-1" d="M20.59,59.43v5.43c0,.19-.05.34-.16.46-.11.11-.26.17-.45.17H.61c-.19,0-.34-.06-.45-.17s-.16-.26-.16-.46v-27.76c0-.19.05-.35.16-.46.11-.11.26-.17.45-.17h19.37c.19,0,.34.05.45.17.11.11.16.26.16.46v5.43c0,.19-.05.34-.16.46-.11.11-.26.17-.45.17H7.84c-.14,0-.2.07-.2.21v4.31c0,.14.07.21.2.21h7.51c.19,0,.34.05.45.17.11.11.16.26.16.46v5.39c0,.19-.05.34-.16.46-.11.11-.26.17-.45.17h-7.51c-.14,0-.2.07-.2.21v3.89c0,.14.07.21.2.21h12.14c.19,0,.34.05.45.17.11.11.16.26.16.46v-.05h0ZM7.43,67.92h4.55c.33,0,.57.12.73.37l2.84,3.89c.08.14.12.26.12.37,0,.25-.16.37-.49.37h-5.48c-.35,0-.6-.15-.73-.46l-1.99-3.81c-.11-.19-.12-.37-.02-.52.09-.15.25-.23.47-.23v.02h0Z"/>
        <path class="cls-1" d="M33.99,36.14c2.22,0,4.18.42,5.87,1.26s3,2.02,3.94,3.54,1.4,3.27,1.4,5.26c0,.25-.2.39-.61.41l-6.42.33c-.19.03-.34,0-.45-.08s-.16-.21-.16-.37c0-1.11-.32-2-.97-2.67-.65-.68-1.52-1.01-2.6-1.01s-1.95.34-2.6,1.01c-.65.68-.97,1.57-.97,2.67v8.91c0,1.13.32,2.04.97,2.71.65.68,1.52,1.01,2.6,1.01s1.95-.34,2.6-1.01c.65-.68.97-1.58.97-2.71,0-.3.16-.46.49-.46h.12l6.42.41c.41.06.61.21.61.46,0,1.99-.47,3.74-1.4,5.24s-2.25,2.67-3.94,3.5-3.65,1.24-5.87,1.24-4.18-.44-5.87-1.33c-1.69-.88-3-2.13-3.94-3.73-.93-1.6-1.4-3.45-1.4-5.55v-8.37c0-2.13.47-4,1.4-5.61s2.25-2.87,3.94-3.75,3.65-1.33,5.87-1.33v.02h0Z"/>
        <path class="cls-1" d="M62.25,64.86v-10.15c0-.14-.07-.21-.2-.21h-6.33c-.14,0-.2.07-.2.21v10.15c0,.19-.05.34-.16.46-.11.11-.26.17-.45.17h-6.42c-.19,0-.34-.06-.45-.17s-.16-.26-.16-.46v-27.76c0-.19.05-.35.16-.46.11-.11.26-.17.45-.17h6.42c.19,0,.34.05.45.17.11.11.16.26.16.46v10.52c0,.14.07.21.2.21h6.33c.14,0,.2-.07.2-.21v-10.52c0-.19.05-.35.16-.46.11-.11.26-.17.45-.17h6.42c.19,0,.34.05.45.17.11.11.16.26.16.46v27.76c0,.19-.05.34-.16.46-.11.11-.26.17-.45.17h-6.42c-.19,0-.34-.06-.45-.17s-.16-.26-.16-.46Z"/>
        <path class="cls-1" d="M83.69,35.98c2.27,0,4.27.46,5.99,1.39s3.05,2.22,4,3.9c.95,1.67,1.42,3.61,1.42,5.82v7.79c0,2.16-.47,4.06-1.42,5.72s-2.28,2.94-4,3.85-3.72,1.37-5.99,1.37-4.23-.46-5.95-1.37-3.05-2.2-4-3.85c-.95-1.66-1.42-3.56-1.42-5.72v-7.79c0-2.21.47-4.15,1.42-5.82s2.28-2.97,4-3.9c1.72-.92,3.7-1.39,5.95-1.39ZM83.69,42.65c-1.11,0-2.01.38-2.7,1.14s-1.04,1.77-1.04,3.04v8.12c0,1.27.35,2.29,1.04,3.05.69.76,1.59,1.14,2.7,1.14s2.05-.38,2.74-1.14,1.04-1.78,1.04-3.05v-8.12c0-1.27-.35-2.29-1.04-3.04-.69-.76-1.6-1.14-2.74-1.14Z"/>
        <path class="cls-1" d="M108.66,36.14c2.19,0,4.11.36,5.77,1.08,1.65.72,2.94,1.75,3.86,3.09.92,1.34,1.38,2.93,1.38,4.79s-.57,3.53-1.71,4.87c-1.14,1.34-2.55,2.26-4.24,2.78-1.69.51-2.65.81-2.86.89-1.57.5-2.73.91-3.49,1.22-.76.32-1.32.65-1.69.99-.37.35-.55.77-.55,1.26,0,.64.25,1.13.75,1.49s1.18.54,2.05.54c1.24,0,2.23-.34,2.96-1.01.73-.68,1.1-1.43,1.1-2.26v-.04c0-.19.05-.35.16-.46.11-.11.26-.17.45-.17h6.29c.19,0,.34.05.45.17.11.11.16.26.16.46v.37c0,1.88-.49,3.55-1.48,5.01-.99,1.46-2.34,2.6-4.06,3.4-1.72.8-3.63,1.2-5.75,1.2s-3.81-.36-5.42-1.08c-1.61-.72-2.88-1.75-3.8-3.09s-1.38-2.88-1.38-4.62c0-2.62.91-4.63,2.72-6.01s4.06-2.49,6.74-3.31l1.18-.33c1.43-.44,2.42-.82,2.96-1.12.54-.3.81-.76.81-1.37,0-.53-.22-1-.65-1.43s-1.15-.64-2.15-.64c-1.33,0-2.39.3-3.19.89s-1.2,1.28-1.2,2.05v.25c0,.19-.05.34-.16.46-.11.11-.26.17-.45.17h-6.29c-.19,0-.34-.06-.45-.17s-.16-.26-.16-.46v-.58c0-1.85.47-3.48,1.4-4.89s2.25-2.49,3.96-3.25,3.7-1.14,5.97-1.14h.01Z"/>
        <path class="cls-1" d="M131.07,36.47h10.44c2.19,0,4.13.39,5.83,1.16,1.69.77,3,1.86,3.92,3.27.92,1.41,1.38,3.04,1.38,4.89v10.36c0,1.85-.46,3.48-1.38,4.89-.92,1.41-2.23,2.5-3.92,3.27s-3.63,1.16-5.83,1.16h-10.44c-.19,0-.34-.06-.45-.17-.11-.11-.16-.26-.16-.46v-27.76c0-.19.05-.35.16-.46.11-.11.26-.17.45-.17v.02ZM138.1,43.35v15.25c0,.14.07.21.2.21h3.45c.97,0,1.76-.37,2.35-1.1.6-.73.89-1.69.89-2.88v-7.71c-.03-1.19-.34-2.15-.93-2.88-.6-.73-1.35-1.1-2.27-1.1h-3.49c-.14,0-.2.07-.2.21h0Z"/>
        <path class="cls-1" d="M166.52,36.14c2.19,0,4.13.43,5.81,1.28,1.68.86,2.98,2.07,3.9,3.65.92,1.57,1.38,3.4,1.38,5.47v18.31c0,.19-.05.34-.16.46-.11.11-.26.17-.45.17h-6.42c-.19,0-.34-.06-.45-.17-.11-.11-.16-.26-.16-.46v-18.31c0-1.11-.32-2-.95-2.69-.64-.69-1.47-1.04-2.5-1.04s-1.9.34-2.54,1.01c-.64.68-.95,1.58-.95,2.71v18.31c0,.19-.05.34-.16.46-.11.11-.26.17-.45.17h-6.42c-.19,0-.34-.06-.45-.17-.11-.11-.16-.26-.16-.46v-18.31c0-2.07.46-3.89,1.38-5.47.92-1.58,2.23-2.79,3.92-3.65,1.69-.86,3.63-1.28,5.83-1.28h0Z"/>
        <path class="cls-1" d="M201.12,65.48h-11.9c-.19,0-.34-.06-.45-.17-.11-.11-.16-.26-.16-.46v-27.76c0-.19.05-.35.16-.46.11-.11.26-.17.45-.17h6.42c.19,0,.34.05.45.17.11.11.16.26.16.46v9.32c0,.14.07.21.2.21h4.3c1.98,0,3.72.39,5.24,1.16,1.52.77,2.69,1.86,3.53,3.27.84,1.41,1.26,3.04,1.26,4.89s-.4,3.54-1.2,4.99c-.8,1.45-1.93,2.57-3.39,3.36s-3.15,1.18-5.08,1.18h0ZM199.86,52.84h-3.41c-.14,0-.2.07-.2.21v5.55c0,.14.07.21.2.21h3.41c1,0,1.81-.28,2.42-.83.61-.55.91-1.28.91-2.2s-.3-1.6-.91-2.13c-.61-.54-1.41-.81-2.42-.81Z"/>
        <path class="cls-1" d="M228.93,36.47h6.94c.38,0,.57.15.57.46,0,.11-.01.19-.04.25l-8.57,27.8c-.11.33-.34.5-.69.5h-8.61c-.35,0-.58-.17-.69-.5l-8.57-27.8c-.14-.47.04-.7.53-.7h6.94c.38,0,.61.18.69.54l.89,3.23c.05.11.12.17.2.17h8.61c.08,0,.15-.06.2-.17l.89-3.23c.08-.36.31-.54.69-.54h.02,0ZM220.12,46.62l2.56,9.28c.03.08.07.12.12.12s.09-.04.12-.12l2.6-9.28c.05-.17,0-.25-.16-.25h-5.08c-.14,0-.19.08-.16.25Z"/>
        <path class="cls-1" d="M247.65,36.14c2.19,0,4.11.36,5.77,1.08,1.65.72,2.94,1.75,3.86,3.09.92,1.34,1.38,2.93,1.38,4.79s-.57,3.53-1.71,4.87c-1.14,1.34-2.55,2.26-4.24,2.78-1.69.51-2.65.81-2.86.89-1.57.5-2.73.91-3.49,1.22-.76.32-1.32.65-1.69.99-.37.35-.55.77-.55,1.26,0,.64.25,1.13.75,1.49s1.18.54,2.05.54c1.24,0,2.23-.34,2.96-1.01.73-.68,1.1-1.43,1.1-2.26v-.04c0-.19.05-.35.16-.46.11-.11.26-.17.45-.17h6.29c.19,0,.34.05.45.17.11.11.16.26.16.46v.37c0,1.88-.49,3.55-1.48,5.01-.99,1.46-2.34,2.6-4.06,3.4-1.72.8-3.63,1.2-5.75,1.2s-3.81-.36-5.42-1.08c-1.61-.72-2.88-1.75-3.8-3.09-.92-1.34-1.38-2.88-1.38-4.62,0-2.62.91-4.63,2.72-6.01s4.06-2.49,6.74-3.31l1.18-.33c1.43-.44,2.42-.82,2.96-1.12.54-.3.81-.76.81-1.37,0-.53-.22-1-.65-1.43s-1.15-.64-2.15-.64c-1.33,0-2.39.3-3.19.89s-1.2,1.28-1.2,2.05v.25c0,.19-.05.34-.16.46-.11.11-.26.17-.45.17h-6.29c-.19,0-.34-.06-.45-.17-.11-.11-.16-.26-.16-.46v-.58c0-1.85.47-3.48,1.4-4.89s2.25-2.49,3.96-3.25,3.7-1.14,5.97-1.14h.01Z"/>
        <path class="cls-1" d="M272.1,36.14c2.19,0,4.11.36,5.77,1.08,1.65.72,2.94,1.75,3.86,3.09.92,1.34,1.38,2.93,1.38,4.79s-.57,3.53-1.71,4.87c-1.14,1.34-2.55,2.26-4.24,2.78-1.69.51-2.65.81-2.86.89-1.57.5-2.73.91-3.49,1.22-.76.32-1.32.65-1.69.99-.37.35-.55.77-.55,1.26,0,.64.25,1.13.75,1.49s1.18.54,2.05.54c1.24,0,2.23-.34,2.96-1.01.73-.68,1.1-1.43,1.1-2.26v-.04c0-.19.05-.35.16-.46.11-.11.26-.17.45-.17h6.29c.19,0,.34.05.45.17.11.11.16.26.16.46v.37c0,1.88-.49,3.55-1.48,5.01-.99,1.46-2.34,2.6-4.06,3.4-1.72.8-3.63,1.2-5.75,1.2s-3.81-.36-5.42-1.08c-1.61-.72-2.88-1.75-3.8-3.09-.92-1.34-1.38-2.88-1.38-4.62,0-2.62.91-4.63,2.72-6.01s4.06-2.49,6.74-3.31l1.18-.33c1.43-.44,2.42-.82,2.96-1.12.54-.3.81-.76.81-1.37,0-.53-.22-1-.65-1.43s-1.15-.64-2.15-.64c-1.33,0-2.39.3-3.19.89s-1.2,1.28-1.2,2.05v.25c0,.19-.05.34-.16.46-.11.11-.26.17-.45.17h-6.29c-.19,0-.34-.06-.45-.17-.11-.11-.16-.26-.16-.46v-.58c0-1.85.47-3.48,1.4-4.89s2.25-2.49,3.96-3.25,3.7-1.14,5.97-1.14h.01Z"/>
        <path class="cls-1" d="M306.37,59.43v5.43c0,.19-.05.34-.16.46-.11.11-.26.17-.45.17h-19.37c-.19,0-.34-.06-.45-.17-.11-.11-.16-.26-.16-.46v-27.76c0-.19.05-.35.16-.46.11-.11.26-.17.45-.17h19.37c.19,0,.34.05.45.17.11.11.16.26.16.46v5.43c0,.19-.05.34-.16.46-.11.11-.26.17-.45.17h-12.14c-.14,0-.2.07-.2.21v4.31c0,.14.07.21.2.21h7.51c.19,0,.34.05.45.17.11.11.16.26.16.46v5.39c0,.19-.05.34-.16.46-.11.11-.26.17-.45.17h-7.51c-.14,0-.2.07-.2.21v3.89c0,.14.07.21.2.21h12.14c.19,0,.34.05.45.17.11.11.16.26.16.46v-.05h0ZM293.21,67.92h4.55c.33,0,.57.12.73.37l2.84,3.89c.08.14.12.26.12.37,0,.25-.16.37-.49.37h-5.48c-.35,0-.6-.15-.73-.46l-1.99-3.81c-.11-.19-.12-.37-.02-.52.09-.15.25-.23.47-.23v.02Z"/>
      </g>
    </g>
  </g>
</svg>