<?xml version="1.0" encoding="UTF-8"?>
<svg id="Layer_1" data-name="Layer 1" xmlns="http://www.w3.org/2000/svg" viewBox="0 0 354.05 160.44">
  <defs>
    <style>
      .cls-1 {
        fill: #955e7e;
      }
    </style>
  </defs>
  <path d="M1.82,107.81c.18.19.41.29.67.29h30.41c.26,0,.48-.1.67-.29s.28-.42.28-.7v-6.26c0-.27-.1-.51-.28-.7s-.41-.29-.67-.29H11.12c-.27,0-.4-.13-.4-.41V8.48c0-.27-.1-.51-.28-.7s-.41-.29-.67-.29H2.48c-.26,0-.49.1-.67.29-.19.19-.28.43-.28.7v98.63c0,.27.09.51.28.7h.01Z"/>
  <path d="M72.89,100.31c1.48-2.72,2.22-5.86,2.22-9.43v-23.22c0-3.51-.74-6.63-2.22-9.35-1.48-2.72-3.55-4.82-6.22-6.3-2.67-1.48-5.83-2.22-9.31-2.22s-6.55.74-9.22,2.22c-2.67,1.48-4.73,3.58-6.18,6.3-1.46,2.72-2.18,5.84-2.18,9.35v23.22c0,3.57.73,6.71,2.18,9.43,1.45,2.72,3.51,4.82,6.18,6.3,2.66,1.48,5.68,2.22,9.22,2.22s6.64-.74,9.31-2.22c2.67-1.48,4.74-3.58,6.22-6.3ZM65.92,91.29c0,2.74-.78,4.98-2.34,6.71-1.56,1.73-3.68,2.59-6.22,2.59s-4.57-.86-6.1-2.59c-1.54-1.73-2.3-3.96-2.3-6.71v-23.88c0-2.81.77-5.07,2.3-6.8,1.53-1.73,3.51-2.59,6.1-2.59s4.66.86,6.22,2.59c1.56,1.73,2.34,4,2.34,6.8v23.88Z"/>
  <path d="M85.71,108.08h7.29c.26,0,.48-.1.67-.29s.28-.42.28-.7l-.08-36.48c0-.22.05-.34.16-.37.11-.02.21.05.32.21l17.26,36.9c.27.49.64.74,1.11.74h7.68c.26,0,.48-.1.67-.29s.28-.42.28-.7v-55.67c0-.27-.1-.51-.28-.7s-.41-.29-.67-.29h-7.29c-.26,0-.49.1-.67.29h0c-.19.18-.28.42-.28.69l.08,36.65c0,.22-.06.34-.16.37-.11.02-.21-.05-.32-.21l-17.34-37.06c-.21-.49-.58-.74-1.11-.74h-7.6c-.26,0-.49.1-.67.29-.19.19-.28.43-.28.7v55.67c0,.27.09.51.28.7.18.19.41.29.67.29Z"/>
  <path d="M157.47,51.89c-2.64-1.4-5.68-2.1-9.11-2.1s-6.46.71-9.07,2.14c-2.61,1.42-4.65,3.44-6.1,6.05-1.46,2.61-2.18,5.62-2.18,9.02v24.54c0,3.41.73,6.41,2.18,9.02,1.45,2.6,3.49,4.62,6.1,6.05h0c2.62,1.44,5.64,2.15,9.07,2.15,5.28,0,9.5-1.55,12.67-4.65,3.17-3.1,4.75-7.37,4.75-12.81v-12.85c0-.27-.1-.51-.28-.7s-.41-.29-.67-.29h-15.84c-.26,0-.49.1-.67.29-.19.19-.28.43-.28.7v6.01c0,.27.09.51.28.7.18.2.4.29.67.29h7.21c.27,0,.4.14.4.41v6.51c0,2.52-.73,4.52-2.18,5.97-1.45,1.45-3.34,2.18-5.82,2.18s-4.5-.81-6.06-2.43-2.34-3.75-2.34-6.38v-24.87c0-2.63.76-4.76,2.26-6.38s3.42-2.43,5.9-2.43,4.48.79,5.98,2.35c1.51,1.56,2.26,3.58,2.26,6.05v1.89c0,.27.09.51.28.7.18.2.41.29.67.29h7.29c.26,0,.48-.1.67-.29s.28-.42.28-.7v-1.89c0-3.24-.73-6.12-2.18-8.65-1.46-2.53-3.5-4.49-6.14-5.89Z"/>
  <path d="M186.49,97.96c-1.51-1.7-2.26-3.92-2.26-6.67v-39.86c0-.27-.1-.51-.28-.7s-.41-.29-.67-.29h-7.29c-.26,0-.49.1-.67.29-.19.19-.28.43-.28.7v39.37c0,3.57.73,6.71,2.18,9.43,1.45,2.72,3.5,4.82,6.14,6.3h0c2.64,1.48,5.62,2.22,9.11,2.22s6.55-.74,9.19-2.22,4.69-3.58,6.14-6.3c1.45-2.72,2.18-5.86,2.18-9.43v-39.37c0-.27-.09-.51-.28-.7-.18-.19-.41-.29-.67-.29h-7.29c-.26,0-.49.1-.67.29-.19.19-.28.43-.28.7v39.86c0,2.74-.77,4.97-2.3,6.67-1.53,1.7-3.54,2.55-6.02,2.55s-4.48-.85-5.98-2.55Z"/>
  <path d="M252.65,57.69v-6.26c0-.27-.1-.51-.28-.7s-.41-.29-.67-.29h-30.65c-.26,0-.49.1-.67.29-.19.19-.28.43-.28.7v55.67c0,.27.09.51.28.7.18.19.41.29.67.29h30.65c.26,0,.48-.1.67-.29s.28-.42.28-.7v-6.26c0-.27-.1-.51-.28-.7s-.41-.29-.67-.29h-22.02c-.27,0-.4-.13-.4-.41v-15.81c0-.27.14-.41.4-.41h14.1c.26,0,.48-.1.67-.29s.28-.42.28-.7v-6.26c0-.27-.1-.51-.28-.7s-.41-.29-.67-.29h-14.1c-.27,0-.4-.13-.4-.41v-15.48c0-.27.14-.41.4-.41h22.02c.26,0,.48-.1.67-.29h0c.19-.19.28-.42.28-.7Z"/>
  <path d="M295.03,50.44h-7.29c-.26,0-.49.1-.67.29-.19.19-.28.43-.28.7v39.86c0,2.74-.77,4.97-2.3,6.67-1.53,1.7-3.54,2.55-6.02,2.55s-4.48-.85-5.98-2.55c-1.51-1.7-2.26-3.92-2.26-6.67v-39.86c0-.27-.1-.51-.28-.7s-.41-.29-.67-.29h-7.29c-.26,0-.49.1-.67.29-.19.19-.28.43-.28.7v39.37c0,3.57.73,6.71,2.18,9.43,1.45,2.72,3.5,4.82,6.14,6.3h0c2.64,1.48,5.62,2.22,9.11,2.22s6.55-.74,9.19-2.22,4.69-3.58,6.14-6.3c1.45-2.72,2.18-5.86,2.18-9.43v-39.37c0-.27-.1-.51-.28-.7-.18-.19-.41-.29-.67-.29Z"/>
  <path d="M307.36,50.45c-.26,0-.49.1-.67.29-.19.19-.28.43-.28.7v55.67c0,.27.09.51.28.7.18.19.41.29.67.29h7.29c.26,0,.48-.1.67-.29s.28-.42.28-.7v-55.67c0-.27-.1-.51-.28-.7-.18-.19-.41-.29-.67-.29h-7.29Z"/>
  <path d="M353.77,7.27c-.18-.19-.41-.29-.67-.29h-7.29c-.26,0-.48.1-.67.29s-.28.43-.28.7v91.47c0,.27-.14.41-.4.41h-21.78c-.26,0-.48.1-.67.29s-.28.43-.28.7v6.26c0,.27.1.51.28.7s.41.29.67.29h30.42c.26,0,.49-.1.67-.29.19-.19.28-.42.28-.7V7.97c0-.27-.09-.51-.28-.7Z"/>
  <path d="M19.71,36.8h2.14c.24,0,.39-.12.45-.37l1.36-5.14c.03-.08.1-.12.21-.12h9.84c.11,0,.18.04.21.12l1.36,5.14h-.01c.05.25.2.37.45.37h2.18c.27,0,.41-.11.41-.33l-.04-.12-7.7-27.98c-.05-.25-.2-.37-.45-.37h-2.63c-.24,0-.4.12-.45.37l-7.7,27.98c-.03.14-.01.25.06.33.07.08.17.12.31.12ZM24.38,28.61l4.32-16.54s.06-.08.08-.08.05.03.08.08l4.36,16.54s.02.06-.02.1c-.04.04-.09.06-.14.06h-8.52s-.14-.06-.14-.06c-.04-.04-.02-.1-.02-.1Z"/>
  <path d="M43.75,34.95c1.52,1.45,3.51,2.18,6.03,2.18s4.54-.73,6.05-2.18c1.51-1.46,2.26-3.43,2.26-5.93v-6.42c0-.27-.14-.41-.41-.41h-7.49c-.27,0-.41.14-.41.41v1.73c0,.27.14.41.41.41h4.81c.1,0,.16.05.16.16v4.49c0,1.6-.49,2.86-1.46,3.79-.98.93-2.27,1.4-3.89,1.4s-2.93-.49-3.93-1.48-1.5-2.28-1.5-3.87v-13.66c0-1.62.49-2.92,1.48-3.89.99-.97,2.29-1.46,3.91-1.46s2.92.49,3.91,1.46c.99.98,1.48,2.25,1.48,3.81v1.15c0,.27.14.41.41.41h2.1c.27,0,.41-.14.41-.41v-1.15c0-1.53-.35-2.89-1.05-4.07-.7-1.18-1.67-2.1-2.92-2.76-1.25-.66-2.69-.99-4.34-.99-2.5,0-4.51.73-6.03,2.18s-2.28,3.39-2.28,5.8v13.5c0,2.41.76,4.35,2.28,5.8h.01Z"/>
  <path d="M65.64,34.95c1.52,1.45,3.51,2.18,6.03,2.18s4.54-.73,6.05-2.18c1.51-1.46,2.26-3.43,2.26-5.93v-6.42c0-.27-.14-.41-.41-.41h-7.49c-.27,0-.41.14-.41.41v1.73c0,.27.14.41.41.41h4.81c.1,0,.16.05.16.16v4.49c0,1.6-.49,2.86-1.46,3.79-.98.93-2.27,1.4-3.89,1.4s-2.93-.49-3.93-1.48-1.5-2.28-1.5-3.87v-13.66c0-1.62.49-2.92,1.48-3.89.99-.97,2.29-1.46,3.91-1.46s2.92.49,3.91,1.46c.99.98,1.48,2.25,1.48,3.81v1.15c0,.27.14.41.41.41h2.1c.27,0,.41-.14.41-.41v-1.15c0-1.53-.35-2.89-1.05-4.07s-1.67-2.1-2.92-2.76c-1.25-.66-2.69-.99-4.34-.99-2.5,0-4.51.73-6.03,2.18s-2.28,3.39-2.28,5.8v13.5c0,2.41.76,4.35,2.28,5.8h.01Z"/>
  <path d="M86.43,36.8h14.65c.27,0,.41-.14.41-.41v-1.73c0-.27-.14-.41-.41-.41h-11.98c-.11,0-.16-.05-.16-.16V8.41c0-.27-.14-.41-.41-.41h-2.1c-.27,0-.41.14-.41.41v27.98c0,.27.14.41.41.41Z"/>
  <path d="M109.01,36.08c1.27.7,2.75,1.05,4.42,1.05s3.14-.35,4.42-1.05c1.27-.7,2.27-1.68,2.98-2.94.71-1.26,1.07-2.71,1.07-4.36v-12.72c0-1.64-.36-3.1-1.07-4.38-.71-1.27-1.7-2.26-2.98-2.96-1.27-.7-2.75-1.05-4.42-1.05s-3.14.35-4.42,1.05c-1.27.7-2.26,1.68-2.96,2.96-.7,1.27-1.05,2.73-1.05,4.38v12.72c0,1.64.35,3.1,1.05,4.36s1.68,2.24,2.96,2.94ZM107.92,15.97c0-1.73.5-3.12,1.52-4.18,1.01-1.05,2.32-1.58,3.99-1.58s3.01.52,4.03,1.58c1.01,1.06,1.52,2.45,1.52,4.18v12.92c0,1.71-.51,3.08-1.52,4.12-1.01,1.04-2.39,1.56-4.03,1.56s-2.98-.52-3.99-1.56c-1.01-1.05-1.52-2.42-1.52-4.12v-12.92Z"/>
  <path d="M131.07,13.95l5.51,9.47c.13.19.3.29.49.29h.45c.19,0,.35-.1.49-.29l5.47-9.51c.02-.08.06-.11.12-.08.05.02.08.08.08.16v22.39c0,.27.14.41.41.41h2.1c.27,0,.41-.14.41-.41V8.4c0-.27-.14-.41-.41-.41h-2.13c-.19,0-.35.1-.49.29l-6.13,10.58s-.07.04-.12.04-.12-.04-.12-.04l-6.21-10.58c-.13-.19-.3-.29-.49-.29h-2.14c-.27,0-.41.14-.41.41v27.98c0,.27.14.41.41.41h2.1c.27,0,.41-.14.41-.41V14.03c0-.08.02-.13.08-.16.05-.03.09,0,.12.08Z"/>
  <path d="M153.8,36.78h15.02c.27,0,.41-.14.41-.41v-1.73c0-.27-.14-.41-.41-.41h-12.35c-.11,0-.16-.05-.16-.16v-10.29c0-.1.05-.16.16-.16h8.31c.27,0,.41-.14.41-.41v-1.73c0-.27-.14-.41-.41-.41h-8.31c-.11,0-.16-.05-.16-.16v-10.21c0-.1.05-.16.16-.16h12.35c.27,0,.41-.15.41-.42v-1.73c0-.27-.14-.41-.41-.41h-15.02c-.27,0-.41.14-.41.41v27.98c0,.27.14.41.41.41Z"/>
  <path d="M159.85,5.27h1.4c.19,0,.35-.1.49-.29l2.84-4.49c.08-.14.1-.25.06-.35-.04-.09-.15-.14-.31-.14h-1.77c-.19,0-.35.1-.49.29l-2.51,4.49c-.08.14-.1.25-.04.35.06.09.17.14.33.14Z"/>
  <path d="M175.09,36.79h2.1c.27,0,.41-.14.41-.41v-12.59c0-.1.05-.16.16-.16h5.31c.08,0,.13.04.16.12l5.1,12.72h.02c.08.22.23.33.45.33h2.18c.25,0,.37-.11.37-.33l-.04-.16-5.31-12.76c-.06-.09-.03-.15.08-.21,1.56-.43,2.79-1.31,3.7-2.63.91-1.31,1.36-2.9,1.36-4.77,0-1.57-.31-2.95-.93-4.16-.61-1.21-1.48-2.14-2.59-2.8-1.11-.66-2.38-.99-3.81-.99h-8.72c-.27,0-.41.14-.41.41v27.98c0,.27.14.41.41.41ZM177.59,10.71h0c0-.11.05-.17.16-.17h5.68c1.43,0,2.58.49,3.46,1.48s1.32,2.32,1.32,3.91-.44,2.88-1.32,3.87-2.03,1.48-3.46,1.48h-5.68c-.11,0-.16-.05-.16-.16v-10.41Z"/>
  <path d="M195.35,36.8h2.14c.24,0,.39-.12.45-.37l1.36-5.14c.03-.08.1-.12.21-.12h9.84c.11,0,.18.04.21.12l1.36,5.14h0c.05.25.2.37.45.37h2.18c.27,0,.41-.11.41-.33l-.04-.12-7.7-27.98c-.05-.25-.2-.37-.45-.37h-2.63c-.24,0-.4.12-.45.37l-7.7,27.98c-.03.14-.01.25.06.33.07.08.17.12.31.12ZM200.01,28.61l4.32-16.54s.06-.08.08-.08.05.03.08.08l4.36,16.54s.02.06-.02.1c-.04.04-.09.06-.14.06h-8.52c-.05,0-.14-.06-.14-.06-.04-.04-.02-.1-.02-.1Z"/>
  <path d="M214.35,10.54h6.46c.1,0,.16.05.16.16v25.68c0,.27.14.41.41.41h2.1c.27,0,.41-.14.41-.41V10.7c0-.1.05-.16.16-.16h6.71c.27,0,.41-.14.41-.41v-1.73h.01c0-.27-.14-.41-.41-.41h-16.42c-.27,0-.41.14-.41.41v1.73c0,.27.14.41.41.41Z"/>
  <rect x="236.19" y="8" width="2.92" height="28.8" rx=".41" ry=".41"/>
  <path d="M260.99,33.14c.71-1.26,1.07-2.71,1.07-4.36v-12.72c0-1.64-.36-3.1-1.07-4.38-.71-1.27-1.7-2.26-2.98-2.96-1.27-.7-2.75-1.05-4.42-1.05s-3.14.35-4.42,1.05c-1.27.7-2.26,1.68-2.96,2.96-.7,1.27-1.05,2.73-1.05,4.38v12.72c0,1.64.35,3.1,1.05,4.36.7,1.26,1.68,2.24,2.96,2.94,1.27.7,2.75,1.05,4.42,1.05s3.14-.35,4.42-1.05c1.27-.7,2.27-1.68,2.98-2.94ZM259.15,28.89c0,1.71-.51,3.08-1.52,4.12-1.01,1.04-2.39,1.56-4.03,1.56s-2.98-.52-3.99-1.56c-1.01-1.05-1.52-2.42-1.52-4.12v-12.92c0-1.73.5-3.12,1.52-4.18,1.01-1.05,2.32-1.58,3.99-1.58s3.01.52,4.03,1.58c1.01,1.06,1.52,2.45,1.52,4.18v12.92Z"/>
  <path d="M268.54,36.78h2.1c.27,0,.41-.14.41-.41l-.04-21.85c0-.08.02-.12.06-.12s.08.03.14.08l11.03,22.02c.08.19.24.29.49.29h2.22c.27,0,.41-.14.41-.41V8.4c0-.27-.14-.41-.41-.41h-2.1c-.27,0-.41.14-.41.41l.04,21.93c0,.08-.02.12-.06.12s-.09-.02-.14-.08l-11.03-22.1c-.08-.19-.24-.29-.49-.29h-2.22c-.27,0-.41.14-.41.41v27.98c0,.27.14.41.41.41Z"/>
  <path d="M300.83,36.81h8.02c2.44,0,4.37-.7,5.78-2.1,1.41-1.4,2.12-3.31,2.12-5.72v-13.17c0-2.41-.71-4.32-2.12-5.72-1.41-1.4-3.34-2.1-5.78-2.1h-8.02c-.27,0-.41.14-.41.41v27.98h0c0,.28.14.42.41.42ZM303.35,10.72c0-.1.05-.16.16-.16h5.39c1.53,0,2.74.49,3.62,1.48.88.98,1.32,2.33,1.32,4.03v12.67c-.03,1.7-.48,3.04-1.36,4.01-.88.97-2.07,1.47-3.58,1.5h-5.39c-.11,0-.16-.05-.16-.16V10.72Z"/>
  <path d="M322.98,36.78h15.02c.27,0,.41-.14.41-.41v-1.73c0-.27-.14-.41-.41-.41h-12.35c-.11,0-.16-.05-.16-.16v-10.29c0-.1.05-.16.16-.16h8.31c.27,0,.41-.14.41-.41v-1.73c0-.27-.14-.41-.41-.41h-8.31c-.11,0-.16-.05-.16-.16v-10.21c0-.1.05-.16.16-.16h12.35c.27,0,.41-.15.41-.42v-1.73c0-.27-.14-.41-.41-.41h-15.02c-.27,0-.41.14-.41.41v27.98c0,.27.14.41.41.41Z"/>
  <path class="cls-1" d="M22.59,121.93h-4.94c-.18,0-.33.06-.46.19s-.19.28-.19.46v26.95c0,1.63-.51,2.94-1.52,3.94-1.01.99-2.32,1.49-3.91,1.49s-2.87-.49-3.83-1.49c-.96-1-1.44-2.31-1.44-3.94v-3.86c0-.18-.06-.33-.19-.46s-.28-.19-.46-.19H.65c-.18,0-.33.06-.46.19s-.19.28-.19.46v3.8c0,3.29,1.05,5.94,3.15,7.93h-.02c2.1,2,4.91,3,8.42,3,2.29,0,4.31-.45,6.09-1.36,1.77-.9,3.15-2.18,4.13-3.83.98-1.65,1.47-3.56,1.47-5.73v-26.9c0-.18-.06-.33-.19-.46s-.28-.19-.46-.19Z"/>
  <path class="cls-1" d="M51.68,121.91h-21.03c-.18,0-.33.06-.46.19s-.19.28-.19.46v36.73c0,.18.06.33.19.46.12.13.28.19.46.19h21.03c.18,0,.33-.06.46-.19.13-.12.19-.28.19-.46v-4.13c0-.18-.06-.33-.19-.46s-.28-.19-.46-.19h-15.11c-.18,0-.27-.09-.27-.27v-10.43c0-.18.09-.27.27-.27h9.67c.18,0,.33-.07.46-.19s.19-.28.19-.46v-4.13c0-.18-.06-.33-.19-.46s-.28-.19-.46-.19h-9.67c-.18,0-.27-.09-.27-.27v-10.22c0-.18.09-.27.27-.27h15.11c.18,0,.33-.06.46-.19h0c.13-.13.19-.29.19-.47v-4.13c0-.18-.06-.33-.19-.46s-.28-.19-.46-.19Z"/>
  <path class="cls-1" d="M95.3,121.91h-5.05c-.36-.01-.62.13-.76.42l-7.01,11.36c-.11.22-.22.22-.33,0l-7.12-11.36c-.14-.28-.4-.43-.76-.43h-5c-.18,0-.33.06-.46.19s-.19.28-.19.46v36.73c0,.18.06.33.19.46.12.13.28.19.46.19h5c.18,0,.33-.07.46-.19s.19-.28.19-.46v-25.7c0-.14.04-.22.11-.24.07,0,.15.03.22.14l5.76,9.46c.14.29.4.43.76.43h1.03c.36,0,.61-.14.76-.43l5.76-9.51c.07-.11.15-.16.22-.14.07,0,.11.1.11.24v25.76c0,.18.06.33.19.46.12.13.28.19.46.19h5c.18,0,.33-.06.46-.19.13-.12.19-.28.19-.46v-36.73c0-.18-.06-.33-.19-.46s-.28-.19-.46-.19Z"/>
  <path class="cls-1" d="M124.49,121.91h-21.03c-.18,0-.33.06-.46.19s-.19.28-.19.46v36.73c0,.18.06.33.19.46.12.13.28.19.46.19h21.03c.18,0,.33-.06.46-.19.13-.12.19-.28.19-.46v-4.13c0-.18-.06-.33-.19-.46s-.28-.19-.46-.19h-15.11c-.18,0-.27-.09-.27-.27v-10.43c0-.18.09-.27.27-.27h9.67c.18,0,.33-.07.46-.19s.19-.28.19-.46v-4.13c0-.18-.06-.33-.19-.46s-.28-.19-.46-.19h-9.67c-.18,0-.27-.09-.27-.27v-10.22c0-.18.09-.27.27-.27h15.11c.18,0,.33-.06.46-.19h0c.13-.13.19-.29.19-.47v-4.13c0-.18-.06-.33-.19-.46s-.28-.19-.46-.19Z"/>
  <path class="cls-1" d="M159.5,141.87c-1.23-.84-3.15-1.99-5.76-3.48-1.95-.98-3.41-1.77-4.37-2.39-.96-.62-1.68-1.27-2.15-1.96-.47-.69-.71-1.52-.71-2.5,0-1.45.45-2.58,1.36-3.4.91-.81,2.14-1.22,3.7-1.22,1.78,0,3.19.51,4.24,1.52,1.05,1.02,1.58,2.3,1.58,3.86v1.03c0,.18.06.33.19.46.12.13.28.19.46.19h4.89c.18,0,.33-.06.46-.19.13-.12.19-.28.19-.46v-1.14c0-2.1-.49-3.97-1.47-5.6-.97-1.63-2.37-2.89-4.18-3.78-1.81-.89-3.9-1.33-6.25-1.33-3.4,0-6.15.91-8.23,2.72-2.08,1.81-3.12,4.27-3.12,7.39,0,2.03.47,3.75,1.39,5.16.93,1.42,2.06,2.57,3.4,3.48,1.34.91,3.12,1.94,5.33,3.1,1.92,1.02,3.34,1.82,4.27,2.42.93.6,1.64,1.25,2.15,1.96.51.71.76,1.55.76,2.53,0,1.41-.45,2.55-1.36,3.42-.9.87-2.21,1.3-3.91,1.3-1.85,0-3.31-.49-4.4-1.47-1.09-.97-1.63-2.24-1.63-3.8v-1.09c0-.18-.06-.33-.19-.46s-.28-.19-.46-.19h-4.89c-.18,0-.33.06-.46.19s-.19.28-.19.46v1.41c0,2.06.49,3.88,1.49,5.46.99,1.58,2.4,2.79,4.21,3.64h-.04c1.81.86,3.91,1.29,6.3,1.29,3.59,0,6.45-.95,8.59-2.83,2.14-1.89,3.21-4.42,3.21-7.61,0-1.92-.43-3.54-1.28-4.86-.85-1.32-1.89-2.4-3.12-3.23Z"/>
  <path class="cls-1" d="M187.05,122.94c-1.82-.98-3.99-1.47-6.38-1.47s-4.5.49-6.33,1.47c-1.83.98-3.24,2.37-4.24,4.16-.99,1.8-1.49,3.85-1.49,6.17v15.32c0,2.35.49,4.43,1.49,6.22,1,1.8,2.41,3.18,4.24,4.16,1.83.98,3.91,1.47,6.33,1.47s4.55-.49,6.38-1.47c1.83-.98,3.26-2.37,4.27-4.16,1.01-1.79,1.52-3.86,1.52-6.22v-15.32c0-2.32-.51-4.38-1.52-6.17-1.02-1.8-2.44-3.18-4.27-4.16ZM186.54,148.86c0,1.81-.53,3.29-1.6,4.43-1.07,1.14-2.54,1.71-4.27,1.71s-3.13-.57-4.18-1.71c-1.06-1.14-1.58-2.62-1.58-4.43v-15.76c0-1.84.53-3.34,1.58-4.48,1.05-1.14,2.4-1.71,4.18-1.71s3.2.57,4.27,1.71,1.6,2.63,1.6,4.48v15.76Z"/>
  <path class="cls-1" d="M221.98,121.92h-5c-.18,0-.33.06-.46.19s-.19.28-.19.46v26.3c0,1.81-.53,3.28-1.58,4.4s-2.43,1.68-4.13,1.68-3.07-.56-4.1-1.68c-1.03-1.12-1.55-2.59-1.55-4.4v-26.3c0-.18-.06-.33-.19-.46s-.28-.19-.46-.19h-5c-.18,0-.33.06-.46.19s-.19.28-.19.46v25.97c0,2.35.49,4.43,1.49,6.22.99,1.8,2.4,3.18,4.21,4.16h.01c1.81.98,3.86,1.47,6.25,1.47s4.49-.49,6.3-1.47c1.81-.98,3.21-2.37,4.21-4.16.99-1.79,1.49-3.86,1.49-6.22v-25.97c0-.18-.06-.33-.19-.46s-.28-.19-.46-.19Z"/>
  <path class="cls-1" d="M253,121.9h-5.27c-.37,0-.6.2-.71.6l-6.25,27.28c-.03.15-.09.22-.16.22s-.12-.07-.16-.22l-6.41-27.33c-.11-.36-.35-.54-.71-.54h-5.38c-.4,0-.6.16-.6.49v.22l9.62,36.79h0c.11.35.36.53.76.53h5.43c.4,0,.65-.18.76-.54l9.62-36.79c.11-.47-.07-.71-.54-.71Z"/>
  <path class="cls-1" d="M264.25,121.92h-5c-.18,0-.33.06-.46.19s-.19.28-.19.46v36.73c0,.18.06.33.19.46.12.13.28.19.46.19h5c.18,0,.33-.06.46-.19.13-.12.19-.28.19-.46v-36.73c0-.18-.06-.33-.19-.46s-.28-.19-.46-.19Z"/>
  <path class="cls-1" d="M293.48,121.91h-21.03c-.18,0-.33.06-.46.19s-.19.28-.19.46v36.73c0,.18.06.33.19.46.12.13.28.19.46.19h21.03c.18,0,.33-.06.46-.19.13-.12.19-.28.19-.46v-4.13c0-.18-.06-.33-.19-.46s-.28-.19-.46-.19h-15.11c-.18,0-.27-.09-.27-.27v-10.43c0-.18.09-.27.27-.27h9.67c.18,0,.33-.07.46-.19s.19-.28.19-.46v-4.13c0-.18-.06-.33-.19-.46s-.28-.19-.46-.19h-9.67c-.18,0-.27-.09-.27-.27v-10.22c0-.18.09-.27.27-.27h15.11c.18,0,.33-.06.46-.19h0c.13-.13.19-.29.19-.47v-4.13c0-.18-.06-.33-.19-.46s-.28-.19-.46-.19Z"/>
  <path class="cls-1" d="M324.07,121.91h-5c-.18,0-.33.06-.46.19s-.19.28-.19.46l.05,24.18c0,.14-.04.22-.11.24-.08,0-.15-.03-.22-.14l-11.9-24.45c-.14-.33-.4-.49-.76-.49h-5.22c-.18,0-.33.06-.46.19s-.19.28-.19.46v36.73c0,.18.06.33.19.46.12.13.28.19.46.19h5c.18,0,.33-.06.46-.19.13-.12.19-.28.19-.46l-.05-24.07c0-.14.04-.22.11-.24.07-.01.15.03.22.14l11.85,24.34c.18.33.43.49.76.49h5.27c.18,0,.33-.06.46-.19.13-.12.19-.28.19-.46v-36.73c0-.18-.06-.33-.19-.46s-.28-.19-.46-.19Z"/>
  <path class="cls-1" d="M349.58,141.87c-1.23-.84-3.15-1.99-5.76-3.48-1.95-.98-3.41-1.77-4.37-2.39-.96-.62-1.68-1.27-2.15-1.96-.47-.69-.71-1.52-.71-2.5,0-1.45.45-2.58,1.36-3.4.91-.81,2.14-1.22,3.7-1.22,1.78,0,3.19.51,4.24,1.52,1.05,1.02,1.58,2.3,1.58,3.86v1.03c0,.18.06.33.19.46.12.13.28.19.46.19h4.89c.18,0,.33-.06.46-.19.13-.12.19-.28.19-.46v-1.14c0-2.1-.49-3.97-1.47-5.6-.97-1.63-2.37-2.89-4.18-3.78-1.81-.89-3.9-1.33-6.25-1.33-3.4,0-6.15.91-8.23,2.72-2.08,1.81-3.12,4.27-3.12,7.39,0,2.03.47,3.75,1.39,5.16.93,1.42,2.06,2.57,3.4,3.48,1.34.91,3.12,1.94,5.33,3.1,1.92,1.02,3.34,1.82,4.27,2.42.93.6,1.64,1.25,2.15,1.96.51.71.76,1.55.76,2.53,0,1.41-.45,2.55-1.36,3.42-.9.87-2.21,1.3-3.91,1.3-1.85,0-3.31-.49-4.4-1.47-1.09-.97-1.63-2.24-1.63-3.8v-1.09c0-.18-.06-.33-.19-.46s-.28-.19-.46-.19h-4.89c-.18,0-.33.06-.46.19s-.19.28-.19.46v1.41c0,2.06.49,3.88,1.49,5.46.99,1.58,2.4,2.79,4.21,3.64h-.04c1.81.86,3.91,1.29,6.3,1.29,3.59,0,6.45-.95,8.59-2.83,2.14-1.89,3.21-4.42,3.21-7.61,0-1.92-.43-3.54-1.28-4.86-.85-1.32-1.89-2.4-3.12-3.23Z"/>
</svg>