<?xml version="1.0" encoding="UTF-8"?>
<svg id="Layer_1" xmlns="http://www.w3.org/2000/svg" version="1.1" viewBox="0 0 595.28 841.89">
  <!-- Generator: Adobe Illustrator 29.5.1, SVG Export Plug-In . SVG Version: 2.1.0 Build 141)  -->
  <defs>
    <style>
      .st0 {
        fill: #f2eeed;
      }
    </style>
  </defs>
  <path class="st0" d="M122.38,448.27c-.19-.19-.28-.43-.28-.7v-98.63c0-.27.09-.51.28-.7.18-.19.41-.29.67-.29h7.29c.26,0,.49.1.67.29.18.19.28.43.28.7v90.97c0,.28.13.41.4.41h21.78c.26,0,.49.1.67.29.18.19.28.43.28.7v6.26c0,.28-.09.51-.28.7-.19.19-.41.29-.67.29h-30.41c-.26,0-.49-.1-.67-.29Z"/>
  <path class="st0" d="M168.71,447.07c-2.67-1.48-4.73-3.58-6.18-6.3-1.45-2.72-2.18-5.86-2.18-9.43v-23.22c0-3.51.72-6.63,2.18-9.35,1.45-2.72,3.51-4.82,6.18-6.3,2.67-1.48,5.74-2.22,9.22-2.22s6.64.74,9.31,2.22c2.67,1.48,4.74,3.58,6.22,6.3,1.48,2.72,2.22,5.84,2.22,9.35v23.22c0,3.57-.74,6.71-2.22,9.43-1.48,2.72-3.55,4.82-6.22,6.3-2.67,1.48-5.77,2.22-9.31,2.22s-6.56-.74-9.22-2.22ZM184.15,438.46c1.56-1.73,2.34-3.97,2.34-6.71v-23.88c0-2.8-.78-5.07-2.34-6.8-1.56-1.73-3.63-2.59-6.22-2.59s-4.57.86-6.1,2.59c-1.53,1.73-2.3,3.99-2.3,6.8v23.88c0,2.75.76,4.98,2.3,6.71,1.53,1.73,3.56,2.59,6.1,2.59s4.66-.86,6.22-2.59Z"/>
  <path class="st0" d="M233.01,391.19c.18-.19.41-.29.67-.29h7.29c.26,0,.49.1.67.29.18.19.28.43.28.7v55.67c0,.28-.09.51-.28.7-.19.19-.41.29-.67.29h-7.68c-.47,0-.84-.25-1.11-.74l-17.26-36.9c-.11-.16-.21-.23-.32-.21-.11.03-.16.15-.16.37l.08,36.48c0,.28-.09.51-.28.7-.19.19-.41.29-.67.29h-7.29c-.26,0-.49-.1-.67-.29-.19-.19-.28-.43-.28-.7v-55.67c0-.27.09-.51.28-.7.18-.19.41-.29.67-.29h7.6c.53,0,.9.25,1.11.74l17.34,37.06c.11.16.21.23.32.21.1-.03.16-.15.16-.37l-.08-36.65c0-.27.09-.51.28-.7Z"/>
  <path class="st0" d="M259.86,447.07c-2.61-1.43-4.65-3.45-6.1-6.05-1.45-2.61-2.18-5.61-2.18-9.02v-24.54c0-3.4.72-6.41,2.18-9.02,1.45-2.61,3.49-4.63,6.1-6.05,2.61-1.43,5.64-2.14,9.07-2.14s6.47.7,9.11,2.1c2.64,1.4,4.68,3.36,6.14,5.89,1.45,2.53,2.18,5.41,2.18,8.65v1.89c0,.28-.09.51-.28.7-.19.19-.41.29-.67.29h-7.29c-.26,0-.49-.09-.67-.29-.19-.19-.28-.43-.28-.7v-1.89c0-2.47-.75-4.49-2.26-6.05-1.5-1.56-3.5-2.35-5.98-2.35s-4.4.81-5.9,2.43c-1.5,1.62-2.26,3.75-2.26,6.38v24.87c0,2.63.78,4.76,2.34,6.38s3.58,2.43,6.06,2.43,4.37-.73,5.82-2.18c1.45-1.45,2.18-3.45,2.18-5.97v-6.51c0-.27-.13-.41-.4-.41h-7.21c-.27,0-.49-.09-.67-.29-.19-.19-.28-.43-.28-.7v-6.01c0-.27.09-.51.28-.7.18-.19.41-.29.67-.29h15.84c.26,0,.49.1.67.29.18.19.28.43.28.7v12.85c0,5.44-1.58,9.71-4.75,12.81-3.17,3.1-7.39,4.65-12.67,4.65-3.43,0-6.45-.71-9.07-2.14Z"/>
  <path class="st0" d="M303.93,446.99c-2.64-1.48-4.69-3.58-6.14-6.3-1.45-2.72-2.18-5.86-2.18-9.43v-39.37c0-.27.09-.51.28-.7.18-.19.41-.29.67-.29h7.29c.26,0,.49.1.67.29.18.19.28.43.28.7v39.86c0,2.75.75,4.97,2.26,6.67,1.5,1.7,3.5,2.55,5.98,2.55s4.49-.85,6.02-2.55c1.53-1.7,2.3-3.93,2.3-6.67v-39.86c0-.27.09-.51.28-.7.18-.19.41-.29.67-.29h7.29c.26,0,.49.1.67.29.19.19.28.43.28.7v39.37c0,3.57-.73,6.71-2.18,9.43-1.45,2.72-3.5,4.82-6.14,6.3-2.64,1.48-5.7,2.22-9.19,2.22s-6.47-.74-9.11-2.22Z"/>
  <path class="st0" d="M372.94,398.85c-.19.19-.41.29-.67.29h-22.02c-.26,0-.4.14-.4.41v15.48c0,.28.13.41.4.41h14.1c.26,0,.49.1.67.29.18.19.28.43.28.7v6.26c0,.28-.09.51-.28.7-.19.19-.41.29-.67.29h-14.1c-.26,0-.4.14-.4.41v15.81c0,.28.13.41.4.41h22.02c.26,0,.49.1.67.29.18.19.28.43.28.7v6.26c0,.28-.09.51-.28.7-.19.19-.41.29-.67.29h-30.65c-.26,0-.49-.1-.67-.29-.19-.19-.28-.43-.28-.7v-55.67c0-.27.09-.51.28-.7.18-.19.41-.29.67-.29h30.65c.26,0,.49.1.67.29.18.19.28.43.28.7v6.26c0,.28-.09.51-.28.7Z"/>
  <path class="st0" d="M389.93,446.99c-2.64-1.48-4.69-3.58-6.14-6.3-1.45-2.72-2.18-5.86-2.18-9.43v-39.37c0-.27.09-.51.28-.7.18-.19.41-.29.67-.29h7.29c.26,0,.49.1.67.29.18.19.28.43.28.7v39.86c0,2.75.75,4.97,2.26,6.67,1.5,1.7,3.5,2.55,5.98,2.55s4.49-.85,6.02-2.55c1.53-1.7,2.3-3.93,2.3-6.67v-39.86c0-.27.09-.51.28-.7.18-.19.41-.29.67-.29h7.29c.26,0,.49.1.67.29.18.19.28.43.28.7v39.37c0,3.57-.73,6.71-2.18,9.43-1.45,2.72-3.5,4.82-6.14,6.3-2.64,1.48-5.7,2.22-9.19,2.22s-6.47-.74-9.11-2.22Z"/>
  <path class="st0" d="M427.26,448.27c-.19-.19-.28-.43-.28-.7v-55.67c0-.27.09-.51.28-.7.18-.19.41-.29.67-.29h7.29c.26,0,.49.1.67.29.18.19.28.43.28.7v55.67c0,.28-.09.51-.28.7-.19.19-.41.29-.67.29h-7.29c-.26,0-.49-.1-.67-.29Z"/>
  <path class="st0" d="M473.66,448.55h-30.41c-.26,0-.49-.1-.67-.29-.18-.19-.28-.43-.28-.7v-6.26c0-.27.09-.51.28-.7.19-.19.41-.29.67-.29h21.78c.26,0,.4-.14.4-.41v-91.47c0-.27.09-.51.28-.7.19-.19.41-.29.67-.29h7.29c.26,0,.49.1.67.29.19.19.28.43.28.7v99.13c0,.28-.09.51-.28.7-.18.19-.41.29-.67.29Z"/>
  <g>
    <path class="st0" d="M155.85,376.89l-1.36-5.14c-.03-.08-.1-.12-.21-.12h-9.84c-.11,0-.18.04-.21.12l-1.36,5.14c-.06.25-.21.37-.45.37h-2.14c-.14,0-.24-.04-.31-.12-.07-.08-.09-.19-.06-.33l7.7-27.98c.05-.25.21-.37.45-.37h2.63c.25,0,.4.12.45.37l7.7,27.98.04.12c0,.22-.14.33-.41.33h-2.18c-.25,0-.4-.12-.45-.37ZM144.97,369.17s.09.06.14.06h8.52c.05,0,.1-.02.14-.06s.05-.08.02-.1l-4.36-16.54c-.03-.05-.06-.08-.08-.08s-.06.03-.08.08l-4.32,16.54s-.02.06.02.1Z"/>
    <path class="st0" d="M164.31,375.41c-1.52-1.45-2.28-3.39-2.28-5.8v-13.5c0-2.41.76-4.35,2.28-5.8,1.52-1.45,3.53-2.18,6.03-2.18,1.65,0,3.09.33,4.34.99,1.25.66,2.22,1.58,2.92,2.76.7,1.18,1.05,2.54,1.05,4.07v1.15c0,.27-.14.41-.41.41h-2.1c-.27,0-.41-.14-.41-.41v-1.15c0-1.56-.49-2.83-1.48-3.81-.99-.97-2.29-1.46-3.91-1.46s-2.92.49-3.91,1.46c-.99.97-1.48,2.27-1.48,3.89v13.66c0,1.59.5,2.88,1.5,3.87,1,.99,2.31,1.48,3.93,1.48s2.91-.47,3.89-1.4c.97-.93,1.46-2.19,1.46-3.79v-4.49c0-.11-.06-.16-.16-.16h-4.81c-.27,0-.41-.14-.41-.41v-1.73c0-.27.14-.41.41-.41h7.49c.27,0,.41.14.41.41v6.42c0,2.5-.75,4.47-2.26,5.93-1.51,1.45-3.53,2.18-6.05,2.18s-4.51-.73-6.03-2.18Z"/>
    <path class="st0" d="M186.2,375.41c-1.52-1.45-2.28-3.39-2.28-5.8v-13.5c0-2.41.76-4.35,2.28-5.8,1.52-1.45,3.53-2.18,6.03-2.18,1.65,0,3.09.33,4.34.99,1.25.66,2.22,1.58,2.92,2.76.7,1.18,1.05,2.54,1.05,4.07v1.15c0,.27-.14.41-.41.41h-2.1c-.27,0-.41-.14-.41-.41v-1.15c0-1.56-.49-2.83-1.48-3.81-.99-.97-2.29-1.46-3.91-1.46s-2.92.49-3.91,1.46c-.99.97-1.48,2.27-1.48,3.89v13.66c0,1.59.5,2.88,1.5,3.87,1,.99,2.31,1.48,3.93,1.48s2.91-.47,3.89-1.4c.97-.93,1.46-2.19,1.46-3.79v-4.49c0-.11-.06-.16-.16-.16h-4.81c-.27,0-.41-.14-.41-.41v-1.73c0-.27.14-.41.41-.41h7.49c.27,0,.41.14.41.41v6.42c0,2.5-.75,4.47-2.26,5.93-1.51,1.45-3.53,2.18-6.05,2.18s-4.51-.73-6.03-2.18Z"/>
    <path class="st0" d="M206.59,376.85v-27.98c0-.27.14-.41.41-.41h2.1c.27,0,.41.14.41.41v25.68c0,.11.05.16.16.16h11.98c.27,0,.41.14.41.41v1.73c0,.27-.14.41-.41.41h-14.65c-.27,0-.41-.14-.41-.41Z"/>
    <path class="st0" d="M229.58,376.54c-1.28-.7-2.26-1.68-2.96-2.94-.7-1.26-1.05-2.72-1.05-4.36v-12.72c0-1.65.35-3.11,1.05-4.38.7-1.28,1.69-2.26,2.96-2.96,1.28-.7,2.75-1.05,4.42-1.05s3.15.35,4.42,1.05c1.28.7,2.27,1.69,2.98,2.96.71,1.28,1.07,2.74,1.07,4.38v12.72c0,1.65-.36,3.1-1.07,4.36-.71,1.26-1.71,2.24-2.98,2.94-1.28.7-2.75,1.05-4.42,1.05s-3.15-.35-4.42-1.05ZM238.03,373.47c1.01-1.04,1.52-2.41,1.52-4.12v-12.92c0-1.73-.51-3.12-1.52-4.18-1.02-1.06-2.36-1.58-4.03-1.58s-2.98.53-3.99,1.58c-1.02,1.06-1.52,2.45-1.52,4.18v12.92c0,1.7.51,3.07,1.52,4.12,1.01,1.04,2.35,1.56,3.99,1.56s3.02-.52,4.03-1.56Z"/>
    <path class="st0" d="M264.62,348.45h2.14c.27,0,.41.14.41.41v27.98c0,.27-.14.41-.41.41h-2.1c-.27,0-.41-.14-.41-.41v-22.39c0-.08-.03-.14-.08-.16-.06-.03-.1,0-.12.08l-5.47,9.51c-.14.19-.3.29-.49.29h-.45c-.19,0-.36-.1-.49-.29l-5.51-9.47c-.03-.08-.07-.11-.12-.08-.06.03-.08.08-.08.16v22.35c0,.27-.14.41-.41.41h-2.1c-.27,0-.41-.14-.41-.41v-27.98c0-.27.14-.41.41-.41h2.14c.19,0,.36.1.49.29l6.21,10.58s.07.04.12.04.1-.01.12-.04l6.13-10.58c.14-.19.3-.29.49-.29Z"/>
    <path class="st0" d="M289.39,351h-12.35c-.11,0-.16.06-.16.16v10.21c0,.11.05.16.16.16h8.31c.27,0,.41.14.41.41v1.73c0,.27-.14.41-.41.41h-8.31c-.11,0-.16.06-.16.16v10.29c0,.11.05.16.16.16h12.35c.27,0,.41.14.41.41v1.73c0,.27-.14.41-.41.41h-15.02c-.27,0-.41-.14-.41-.41v-27.98c0-.27.14-.41.41-.41h15.02c.27,0,.41.14.41.41v1.73c0,.27-.14.41-.41.41ZM280.09,345.59c-.06-.1-.04-.21.04-.35l2.51-4.49c.14-.19.3-.29.49-.29h1.77c.16,0,.27.05.31.14.04.1.02.21-.06.35l-2.84,4.49c-.14.19-.3.29-.49.29h-1.4c-.16,0-.27-.05-.33-.14Z"/>
    <path class="st0" d="M308.9,376.93l-5.1-12.72c-.03-.08-.08-.12-.16-.12h-5.31c-.11,0-.16.06-.16.16v12.59c0,.27-.14.41-.41.41h-2.1c-.27,0-.41-.14-.41-.41v-27.98c0-.27.14-.41.41-.41h8.72c1.43,0,2.7.33,3.81.99,1.11.66,1.98,1.59,2.59,2.8.62,1.21.93,2.59.93,4.16,0,1.87-.45,3.46-1.36,4.77-.91,1.32-2.14,2.2-3.7,2.63-.11.06-.14.12-.08.21l5.31,12.76.04.16c0,.22-.12.33-.37.33h-2.18c-.22,0-.37-.11-.45-.33ZM298.16,351.17v10.41c0,.11.05.16.16.16h5.68c1.43,0,2.58-.49,3.46-1.48.88-.99,1.32-2.28,1.32-3.87s-.44-2.92-1.32-3.91c-.88-.99-2.03-1.48-3.46-1.48h-5.68c-.11,0-.16.06-.16.16Z"/>
    <path class="st0" d="M331.49,376.89l-1.36-5.14c-.03-.08-.1-.12-.21-.12h-9.84c-.11,0-.18.04-.21.12l-1.36,5.14c-.06.25-.21.37-.45.37h-2.14c-.14,0-.24-.04-.31-.12-.07-.08-.09-.19-.06-.33l7.7-27.98c.05-.25.21-.37.45-.37h2.63c.25,0,.4.12.45.37l7.7,27.98.04.12c0,.22-.14.33-.41.33h-2.18c-.25,0-.4-.12-.45-.37ZM320.6,369.17s.09.06.14.06h8.52c.05,0,.1-.02.14-.06s.05-.08.02-.1l-4.36-16.54c-.03-.05-.06-.08-.08-.08s-.06.03-.08.08l-4.32,16.54s-.02.06.02.1Z"/>
    <path class="st0" d="M351.74,348.86v1.73c0,.27-.14.41-.41.41h-6.71c-.11,0-.16.06-.16.16v25.68c0,.27-.14.41-.41.41h-2.1c-.27,0-.41-.14-.41-.41v-25.68c0-.11-.06-.16-.16-.16h-6.46c-.27,0-.41-.14-.41-.41v-1.73c0-.27.14-.41.41-.41h16.42c.27,0,.41.14.41.41Z"/>
    <path class="st0" d="M356.76,376.85v-27.98c0-.27.14-.41.41-.41h2.1c.27,0,.41.14.41.41v27.98c0,.27-.14.41-.41.41h-2.1c-.27,0-.41-.14-.41-.41Z"/>
    <path class="st0" d="M369.74,376.54c-1.28-.7-2.26-1.68-2.96-2.94-.7-1.26-1.05-2.72-1.05-4.36v-12.72c0-1.65.35-3.11,1.05-4.38.7-1.28,1.69-2.26,2.96-2.96,1.28-.7,2.75-1.05,4.42-1.05s3.15.35,4.42,1.05c1.28.7,2.27,1.69,2.98,2.96.71,1.28,1.07,2.74,1.07,4.38v12.72c0,1.65-.36,3.1-1.07,4.36-.71,1.26-1.71,2.24-2.98,2.94-1.28.7-2.75,1.05-4.42,1.05s-3.15-.35-4.42-1.05ZM378.2,373.47c1.01-1.04,1.52-2.41,1.52-4.12v-12.92c0-1.73-.51-3.12-1.52-4.18-1.02-1.06-2.36-1.58-4.03-1.58s-2.98.53-3.99,1.58c-1.02,1.06-1.52,2.45-1.52,4.18v12.92c0,1.7.51,3.07,1.52,4.12,1.01,1.04,2.35,1.56,3.99,1.56s3.02-.52,4.03-1.56Z"/>
    <path class="st0" d="M403.42,348.45h2.1c.27,0,.41.14.41.41v27.98c0,.27-.14.41-.41.41h-2.22c-.25,0-.41-.1-.49-.29l-11.03-22.02c-.06-.05-.1-.08-.14-.08s-.06.04-.06.12l.04,21.85c0,.27-.14.41-.41.41h-2.1c-.27,0-.41-.14-.41-.41v-27.98c0-.27.14-.41.41-.41h2.22c.25,0,.41.1.49.29l11.03,22.1c.05.06.1.08.14.08s.06-.04.06-.12l-.04-21.93c0-.27.14-.41.41-.41Z"/>
    <path class="st0" d="M420.99,376.85v-27.98c0-.27.14-.41.41-.41h8.02c2.44,0,4.37.7,5.78,2.1,1.41,1.4,2.12,3.31,2.12,5.72v13.17c0,2.41-.71,4.32-2.12,5.72-1.41,1.4-3.34,2.1-5.78,2.1h-8.02c-.27,0-.41-.14-.41-.41ZM424.08,374.71h5.39c1.51-.03,2.7-.53,3.58-1.5.88-.97,1.33-2.31,1.36-4.01v-12.67c0-1.7-.44-3.05-1.32-4.03-.88-.99-2.09-1.48-3.62-1.48h-5.39c-.11,0-.16.06-.16.16v23.37c0,.11.05.16.16.16Z"/>
    <path class="st0" d="M458.57,351h-12.35c-.11,0-.16.06-.16.16v10.21c0,.11.05.16.16.16h8.31c.27,0,.41.14.41.41v1.73c0,.27-.14.41-.41.41h-8.31c-.11,0-.16.06-.16.16v10.29c0,.11.05.16.16.16h12.35c.27,0,.41.14.41.41v1.73c0,.27-.14.41-.41.41h-15.02c-.27,0-.41-.14-.41-.41v-27.98c0-.27.14-.41.41-.41h15.02c.27,0,.41.14.41.41v1.73c0,.27-.14.41-.41.41Z"/>
  </g>
  <path class="st0" d="M123.72,497.86c-2.1-1.99-3.15-4.64-3.15-7.93v-3.8c0-.18.06-.33.19-.46.13-.13.28-.19.46-.19h5c.18,0,.33.06.46.19.13.13.19.28.19.46v3.86c0,1.63.48,2.94,1.44,3.94.96,1,2.24,1.49,3.83,1.49s2.9-.5,3.91-1.49c1.01-1,1.52-2.31,1.52-3.94v-26.95c0-.18.06-.33.19-.46s.28-.19.46-.19h4.94c.18,0,.33.06.46.19.13.13.19.28.19.46v26.9c0,2.17-.49,4.08-1.47,5.73-.98,1.65-2.36,2.93-4.13,3.83-1.78.91-3.8,1.36-6.09,1.36-3.51,0-6.32-1-8.42-2.99Z"/>
  <path class="st0" d="M172.71,467.62c-.13.13-.28.19-.46.19h-15.11c-.18,0-.27.09-.27.27v10.22c0,.18.09.27.27.27h9.67c.18,0,.33.06.46.19.13.13.19.28.19.46v4.13c0,.18-.06.34-.19.46s-.28.19-.46.19h-9.67c-.18,0-.27.09-.27.27v10.43c0,.18.09.27.27.27h15.11c.18,0,.33.06.46.19.13.13.19.28.19.46v4.13c0,.18-.06.34-.19.46-.13.13-.28.19-.46.19h-21.03c-.18,0-.34-.06-.46-.19-.13-.13-.19-.28-.19-.46v-36.73c0-.18.06-.33.19-.46.13-.13.28-.19.46-.19h21.03c.18,0,.33.06.46.19.13.13.19.28.19.46v4.13c0,.18-.06.34-.19.46Z"/>
  <path class="st0" d="M210.82,462.37h5.05c.18,0,.33.06.46.19.13.13.19.28.19.46v36.73c0,.18-.06.34-.19.46-.13.13-.28.19-.46.19h-5c-.18,0-.34-.06-.46-.19-.13-.13-.19-.28-.19-.46v-25.76c0-.14-.04-.23-.11-.24-.07-.02-.15.03-.22.14l-5.76,9.51c-.15.29-.4.43-.76.43h-1.03c-.36,0-.62-.14-.76-.43l-5.76-9.46c-.07-.11-.15-.15-.22-.14-.07.02-.11.1-.11.24v25.7c0,.18-.06.34-.19.46s-.28.19-.46.19h-5c-.18,0-.34-.06-.46-.19-.13-.13-.19-.28-.19-.46v-36.73c0-.18.06-.33.19-.46s.28-.19.46-.19h5c.36,0,.62.15.76.43l7.12,11.36c.11.22.22.22.33,0l7.01-11.36c.14-.29.4-.43.76-.43Z"/>
  <path class="st0" d="M245.52,467.62c-.13.13-.28.19-.46.19h-15.11c-.18,0-.27.09-.27.27v10.22c0,.18.09.27.27.27h9.67c.18,0,.33.06.46.19.13.13.19.28.19.46v4.13c0,.18-.06.34-.19.46s-.28.19-.46.19h-9.67c-.18,0-.27.09-.27.27v10.43c0,.18.09.27.27.27h15.11c.18,0,.33.06.46.19.13.13.19.28.19.46v4.13c0,.18-.06.34-.19.46-.13.13-.28.19-.46.19h-21.03c-.18,0-.34-.06-.46-.19-.13-.13-.19-.28-.19-.46v-36.73c0-.18.06-.33.19-.46.13-.13.28-.19.46-.19h21.03c.18,0,.33.06.46.19.13.13.19.28.19.46v4.13c0,.18-.06.34-.19.46Z"/>
  <path class="st0" d="M266.41,499.57c-1.81-.85-3.22-2.06-4.21-3.64-1-1.58-1.49-3.4-1.49-5.46v-1.41c0-.18.06-.33.19-.46s.28-.19.46-.19h4.89c.18,0,.33.06.46.19.13.13.19.28.19.46v1.09c0,1.56.54,2.83,1.63,3.8,1.09.98,2.55,1.47,4.4,1.47,1.7,0,3.01-.43,3.91-1.3.91-.87,1.36-2.01,1.36-3.42,0-.98-.25-1.82-.76-2.53-.51-.71-1.22-1.36-2.15-1.96s-2.35-1.4-4.27-2.42c-2.21-1.16-3.99-2.19-5.33-3.1-1.34-.91-2.47-2.06-3.4-3.48-.92-1.41-1.39-3.13-1.39-5.16,0-3.12,1.04-5.58,3.12-7.39,2.08-1.81,4.83-2.72,8.23-2.72,2.35,0,4.44.44,6.25,1.33,1.81.89,3.21,2.15,4.18,3.78.98,1.63,1.47,3.5,1.47,5.6v1.14c0,.18-.06.34-.19.46-.13.13-.28.19-.46.19h-4.89c-.18,0-.34-.06-.46-.19-.13-.13-.19-.28-.19-.46v-1.03c0-1.56-.53-2.84-1.58-3.86-1.05-1.01-2.46-1.52-4.24-1.52-1.56,0-2.79.41-3.7,1.22-.91.82-1.36,1.95-1.36,3.4,0,.98.24,1.81.71,2.5.47.69,1.19,1.34,2.15,1.96.96.62,2.42,1.41,4.37,2.39,2.61,1.49,4.53,2.64,5.76,3.48,1.23.83,2.27,1.91,3.12,3.23.85,1.32,1.28,2.94,1.28,4.86,0,3.19-1.07,5.72-3.21,7.61-2.14,1.88-5,2.83-8.59,2.83-2.39,0-4.49-.43-6.3-1.28Z"/>
  <path class="st0" d="M294.91,499.43c-1.83-.98-3.24-2.36-4.24-4.16-1-1.79-1.49-3.87-1.49-6.22v-15.32c0-2.32.5-4.37,1.49-6.17,1-1.79,2.41-3.18,4.24-4.16,1.83-.98,3.94-1.47,6.33-1.47s4.56.49,6.38,1.47c1.83.98,3.25,2.36,4.27,4.16,1.01,1.79,1.52,3.85,1.52,6.17v15.32c0,2.36-.51,4.43-1.52,6.22-1.01,1.79-2.44,3.18-4.27,4.16-1.83.98-3.96,1.47-6.38,1.47s-4.5-.49-6.33-1.47ZM305.51,493.75c1.07-1.14,1.6-2.62,1.6-4.43v-15.76c0-1.85-.53-3.34-1.6-4.48-1.07-1.14-2.49-1.71-4.27-1.71s-3.13.57-4.18,1.71c-1.05,1.14-1.58,2.64-1.58,4.48v15.76c0,1.81.52,3.29,1.58,4.43,1.05,1.14,2.45,1.71,4.18,1.71s3.2-.57,4.27-1.71Z"/>
  <path class="st0" d="M324.94,499.38c-1.81-.98-3.22-2.36-4.21-4.16-1-1.79-1.49-3.87-1.49-6.22v-25.97c0-.18.06-.33.19-.46.13-.13.28-.19.46-.19h5c.18,0,.33.06.46.19.13.13.19.28.19.46v26.3c0,1.81.52,3.28,1.55,4.4,1.03,1.12,2.4,1.68,4.1,1.68s3.08-.56,4.13-1.68c1.05-1.12,1.58-2.59,1.58-4.4v-26.3c0-.18.06-.33.19-.46.13-.13.28-.19.46-.19h5c.18,0,.33.06.46.19.13.13.19.28.19.46v25.97c0,2.36-.5,4.43-1.49,6.22-1,1.79-2.4,3.18-4.21,4.16-1.81.98-3.91,1.47-6.3,1.47s-4.44-.49-6.25-1.47Z"/>
  <path class="st0" d="M357.54,499.87l-9.62-36.79v-.22c0-.33.2-.49.6-.49h5.38c.36,0,.6.18.71.54l6.41,27.33c.04.15.09.22.16.22s.13-.07.16-.22l6.25-27.28c.11-.4.34-.6.71-.6h5.27c.47,0,.65.24.54.71l-9.62,36.79c-.11.36-.36.54-.76.54h-5.43c-.4,0-.65-.18-.76-.54Z"/>
  <path class="st0" d="M379.36,500.22c-.13-.13-.19-.28-.19-.46v-36.73c0-.18.06-.33.19-.46.13-.13.28-.19.46-.19h5c.18,0,.33.06.46.19.13.13.19.28.19.46v36.73c0,.18-.06.34-.19.46-.13.13-.28.19-.46.19h-5c-.18,0-.34-.06-.46-.19Z"/>
  <path class="st0" d="M414.51,467.62c-.13.13-.28.19-.46.19h-15.11c-.18,0-.27.09-.27.27v10.22c0,.18.09.27.27.27h9.67c.18,0,.33.06.46.19.13.13.19.28.19.46v4.13c0,.18-.06.34-.19.46s-.28.19-.46.19h-9.67c-.18,0-.27.09-.27.27v10.43c0,.18.09.27.27.27h15.11c.18,0,.33.06.46.19.13.13.19.28.19.46v4.13c0,.18-.06.34-.19.46-.13.13-.28.19-.46.19h-21.03c-.18,0-.34-.06-.46-.19-.13-.13-.19-.28-.19-.46v-36.73c0-.18.06-.33.19-.46.13-.13.28-.19.46-.19h21.03c.18,0,.33.06.46.19.13.13.19.28.19.46v4.13c0,.18-.06.34-.19.46Z"/>
  <path class="st0" d="M439.18,462.56c.13-.13.28-.19.46-.19h5c.18,0,.33.06.46.19.13.13.19.28.19.46v36.73c0,.18-.06.34-.19.46-.13.13-.28.19-.46.19h-5.27c-.33,0-.58-.16-.76-.49l-11.85-24.34c-.07-.11-.15-.15-.22-.14-.07.02-.11.1-.11.24l.05,24.07c0,.18-.06.34-.19.46-.13.13-.28.19-.46.19h-5c-.18,0-.34-.06-.46-.19-.13-.13-.19-.28-.19-.46v-36.73c0-.18.06-.33.19-.46.13-.13.28-.19.46-.19h5.22c.36,0,.62.16.76.49l11.9,24.45c.07.11.14.15.22.14.07-.02.11-.1.11-.24l-.05-24.18c0-.18.06-.33.19-.46Z"/>
  <path class="st0" d="M456.49,499.57c-1.81-.85-3.22-2.06-4.21-3.64-1-1.58-1.49-3.4-1.49-5.46v-1.41c0-.18.06-.33.19-.46s.28-.19.46-.19h4.89c.18,0,.33.06.46.19.13.13.19.28.19.46v1.09c0,1.56.54,2.83,1.63,3.8,1.09.98,2.55,1.47,4.4,1.47,1.7,0,3.01-.43,3.91-1.3.91-.87,1.36-2.01,1.36-3.42,0-.98-.25-1.82-.76-2.53-.51-.71-1.22-1.36-2.15-1.96s-2.35-1.4-4.27-2.42c-2.21-1.16-3.99-2.19-5.33-3.1-1.34-.91-2.47-2.06-3.4-3.48-.92-1.41-1.39-3.13-1.39-5.16,0-3.12,1.04-5.58,3.12-7.39,2.08-1.81,4.83-2.72,8.23-2.72,2.35,0,4.44.44,6.25,1.33,1.81.89,3.21,2.15,4.18,3.78.98,1.63,1.47,3.5,1.47,5.6v1.14c0,.18-.06.34-.19.46-.13.13-.28.19-.46.19h-4.89c-.18,0-.34-.06-.46-.19-.13-.13-.19-.28-.19-.46v-1.03c0-1.56-.53-2.84-1.58-3.86-1.05-1.01-2.46-1.52-4.24-1.52-1.56,0-2.79.41-3.7,1.22-.91.82-1.36,1.95-1.36,3.4,0,.98.24,1.81.71,2.5.47.69,1.19,1.34,2.15,1.96.96.62,2.42,1.41,4.37,2.39,2.61,1.49,4.53,2.64,5.76,3.48,1.23.83,2.27,1.91,3.12,3.23.85,1.32,1.28,2.94,1.28,4.86,0,3.19-1.07,5.72-3.21,7.61-2.14,1.88-5,2.83-8.59,2.83-2.39,0-4.49-.43-6.3-1.28Z"/>
</svg>