<?xml version="1.0" encoding="UTF-8"?>
<svg xmlns="http://www.w3.org/2000/svg" version="1.1" viewBox="0 0 595.28 841.89">
  <!-- Generator: Adobe Illustrator 29.5.1, SVG Export Plug-In . SVG Version: 2.1.0 Build 141)  -->
  <defs>
    <style>
      .st0 {
        fill: #f37c80;
      }

      .st1 {
        fill: #231f20;
      }

      .st2 {
        isolation: isolate;
      }

      .st3 {
        mix-blend-mode: multiply;
      }

      .st4 {
        fill: #c0ad30;
      }

      .st5 {
        fill: #bb782b;
      }

      .st6 {
        fill: #4a7899;
      }

      .st7 {
        fill: #60bcad;
      }

      .st8 {
        fill: #4b7899;
      }

      .st9 {
        fill: #f4b025;
      }

      .st10 {
        fill: #5fbbac;
      }

      .st11 {
        fill: #91977f;
      }

      .st12 {
        fill: #ef6c2e;
      }

      .st13 {
        fill: #955e7e;
      }
    </style>
  </defs>
  <g class="st2">
    <g id="Layer_1">
      <g>
        <g class="st3">
          <path class="st13" d="M123.85,120.61c-.4-22.15-18.48-39.98-40.73-39.98-22.25,0-40.33,17.83-40.73,39.98h81.46Z"/>
        </g>
        <g class="st3">
          <path class="st13" d="M42.39,39.31c.4,22.15,18.48,39.98,40.73,39.98,22.25,0,40.33-17.83,40.73-39.98H42.39Z"/>
        </g>
      </g>
      <g>
        <rect class="st4" x="184.6" y="537.31" width="277.5" height="4.03" transform="translate(-215.98 862.68) rotate(-90)"/>
        <rect class="st4" x="173.69" y="537.31" width="277.5" height="4.03" transform="translate(-226.89 851.76) rotate(-90)"/>
        <rect class="st4" x="162.77" y="537.31" width="277.5" height="4.03" transform="translate(-237.81 840.84) rotate(-90)"/>
        <rect class="st4" x="151.85" y="537.31" width="277.5" height="4.03" transform="translate(-248.73 829.93) rotate(-90)"/>
        <rect class="st4" x="140.94" y="537.31" width="277.5" height="4.03" transform="translate(-259.64 819.01) rotate(-90)"/>
      </g>
      <g>
        <path class="st10" d="M282.81,39.68c.44,24.03,20.05,43.38,44.19,43.38s43.76-19.35,44.19-43.38h-88.38Z"/>
        <path class="st10" d="M371.37,128.55c-.44-24.03-20.05-43.38-44.19-43.38-24.14,0-43.76,19.35-44.19,43.38h88.38Z"/>
      </g>
      <path class="st12" d="M208.89,35.83c-23.63.43-42.65,19.8-42.65,43.53,0,23.73,19.02,43.1,42.65,43.53h44.42s0-87.06,0-87.06h-44.42Z"/>
      <path class="st0" d="M385.08,128.52c24.12-.44,43.53-20.12,43.53-44.34,0-24.22-19.41-43.91-43.53-44.34v88.69Z"/>
      <path class="st0" d="M473.83,39.84c-24.12.44-43.53,20.12-43.53,44.34,0,24.22,19.41,43.91,43.53,44.34V39.84Z"/>
      <g>
        <path class="st11" d="M472.46,166.88c-21.5.39-38.81,17.98-38.81,39.61s17.31,39.22,38.81,39.61v-79.23Z"/>
        <path class="st11" d="M432.02,166.91c-21.5.39-38.81,17.98-38.81,39.61s17.31,39.22,38.81,39.61v-79.23Z"/>
      </g>
      <path class="st7" d="M370.22,313.57c-.39-21.5-18.02-38.81-39.61-38.81-21.59,0-39.22,17.31-39.61,38.81v40.43s79.23,0,79.23,0v-40.43Z"/>
      <circle class="st8" cx="331.85" cy="207.84" r="39.52"/>
      <g>
        <path class="st1" d="M172.68,751.7c-.11.11-.26.17-.45.17h-12.14c-.14,0-.2.07-.2.21v3.89c0,.14.07.21.2.21h7.51c.19,0,.34.06.45.17.11.11.16.26.16.46v5.39c0,.19-.05.35-.16.46-.11.11-.26.17-.45.17h-7.51c-.14,0-.2.07-.2.21v4.31c0,.14.07.21.2.21h12.14c.19,0,.34.06.45.17.11.11.16.26.16.46v5.43c0,.19-.05.35-.16.46-.11.11-.26.17-.45.17h-19.37c-.19,0-.34-.05-.45-.17-.11-.11-.16-.26-.16-.46v-27.76c0-.19.05-.34.16-.46.11-.11.26-.17.45-.17h19.37c.19,0,.34.06.45.17.11.11.16.26.16.46v5.43c0,.19-.05.35-.16.46ZM159.22,742.52c-.1-.15-.09-.32.02-.52l1.99-3.81c.13-.3.38-.46.73-.46h5.48c.32,0,.49.12.49.37,0,.11-.04.23-.12.37l-2.84,3.89c-.16.25-.41.37-.73.37h-4.55c-.22,0-.37-.08-.47-.23Z"/>
        <path class="st1" d="M180.37,773.21c-1.69-.88-3-2.13-3.94-3.75s-1.4-3.49-1.4-5.61v-8.37c0-2.1.47-3.95,1.4-5.55.93-1.6,2.25-2.84,3.94-3.73,1.69-.88,3.65-1.33,5.87-1.33s4.18.41,5.87,1.24c1.69.83,3,2,3.94,3.5s1.4,3.25,1.4,5.24c0,.25-.2.4-.61.46l-6.42.41h-.12c-.32,0-.49-.15-.49-.46,0-1.13-.32-2.04-.97-2.71-.65-.68-1.52-1.01-2.6-1.01s-1.95.34-2.6,1.01c-.65.68-.97,1.58-.97,2.71v8.91c0,1.11.32,2,.97,2.67.65.68,1.52,1.01,2.6,1.01s1.95-.34,2.6-1.01c.65-.68.97-1.57.97-2.67,0-.17.05-.29.16-.37.11-.08.26-.11.45-.08l6.42.33c.41.03.61.17.61.41,0,1.99-.47,3.74-1.4,5.26s-2.25,2.7-3.94,3.54c-1.69.84-3.65,1.26-5.87,1.26s-4.18-.44-5.87-1.33Z"/>
        <path class="st1" d="M214.66,745.36c.11-.11.26-.17.45-.17h6.42c.19,0,.34.06.45.17.11.11.16.26.16.46v27.76c0,.19-.05.35-.16.46-.11.11-.26.17-.45.17h-6.42c-.19,0-.34-.05-.45-.17-.11-.11-.16-.26-.16-.46v-10.52c0-.14-.07-.21-.2-.21h-6.33c-.14,0-.2.07-.2.21v10.52c0,.19-.05.35-.16.46-.11.11-.26.17-.45.17h-6.42c-.19,0-.34-.05-.45-.17-.11-.11-.16-.26-.16-.46v-27.76c0-.19.05-.34.16-.46.11-.11.26-.17.45-.17h6.42c.19,0,.34.06.45.17.11.11.16.26.16.46v10.15c0,.14.07.21.2.21h6.33c.14,0,.2-.07.2-.21v-10.15c0-.19.05-.34.16-.46Z"/>
        <path class="st1" d="M229.99,773.31c-1.72-.93-3.05-2.22-4-3.9-.95-1.67-1.42-3.61-1.42-5.82v-7.79c0-2.16.47-4.06,1.42-5.72.95-1.66,2.28-2.94,4-3.85,1.72-.91,3.7-1.37,5.95-1.37s4.27.46,5.99,1.37c1.72.91,3.05,2.2,4,3.85.95,1.66,1.42,3.56,1.42,5.72v7.79c0,2.21-.47,4.15-1.42,5.82-.95,1.67-2.28,2.97-4,3.9-1.72.92-3.72,1.39-5.99,1.39s-4.23-.46-5.95-1.39ZM238.68,766.89c.69-.76,1.04-1.77,1.04-3.04v-8.12c0-1.27-.35-2.29-1.04-3.05-.69-.76-1.6-1.14-2.74-1.14s-2.01.38-2.7,1.14c-.69.76-1.04,1.78-1.04,3.05v8.12c0,1.27.35,2.29,1.04,3.04.69.76,1.59,1.14,2.7,1.14s2.05-.38,2.74-1.14Z"/>
        <path class="st1" d="M254.94,773.39c-1.71-.76-3.02-1.84-3.96-3.25s-1.4-3.04-1.4-4.89v-.58c0-.19.05-.34.16-.46.11-.11.26-.17.45-.17h6.29c.19,0,.34.06.45.17.11.11.16.26.16.46v.25c0,.77.4,1.46,1.2,2.05.8.59,1.86.89,3.19.89,1,0,1.72-.21,2.15-.64.43-.43.65-.9.65-1.43,0-.61-.27-1.06-.81-1.37-.54-.3-1.53-.68-2.96-1.12l-1.18-.33c-2.68-.83-4.93-1.93-6.74-3.31-1.81-1.38-2.72-3.38-2.72-6.01,0-1.74.46-3.28,1.38-4.62.92-1.34,2.19-2.37,3.8-3.09,1.61-.72,3.42-1.08,5.42-1.08,2.11,0,4.03.4,5.75,1.2,1.72.8,3.07,1.93,4.06,3.4.99,1.46,1.48,3.14,1.48,5.01v.37c0,.19-.05.35-.16.46-.11.11-.26.17-.45.17h-6.29c-.19,0-.34-.05-.45-.17-.11-.11-.16-.26-.16-.46v-.04c0-.83-.37-1.58-1.1-2.26-.73-.68-1.72-1.01-2.96-1.01-.87,0-1.55.18-2.05.54-.5.36-.75.86-.75,1.49,0,.5.18.92.55,1.26.37.35.93.68,1.69.99.76.32,1.92.72,3.49,1.22.22.08,1.17.38,2.86.89,1.69.51,3.11,1.44,4.24,2.78,1.14,1.34,1.71,2.96,1.71,4.87s-.46,3.45-1.38,4.79c-.92,1.34-2.21,2.37-3.86,3.09-1.65.72-3.57,1.08-5.77,1.08s-4.26-.38-5.97-1.14Z"/>
        <path class="st1" d="M282.88,774.03c-.11-.11-.16-.26-.16-.46v-27.76c0-.19.05-.34.16-.46.11-.11.26-.17.45-.17h10.44c2.19,0,4.13.39,5.83,1.16,1.69.77,3,1.86,3.92,3.27.92,1.41,1.38,3.04,1.38,4.89v10.36c0,1.85-.46,3.48-1.38,4.89-.92,1.41-2.23,2.5-3.92,3.27-1.69.77-3.63,1.16-5.83,1.16h-10.44c-.19,0-.34-.05-.45-.17ZM290.55,767.53h3.49c.92,0,1.68-.37,2.27-1.1.6-.73.91-1.69.93-2.88v-7.71c0-1.19-.3-2.15-.89-2.88-.6-.73-1.38-1.1-2.35-1.1h-3.45c-.14,0-.2.07-.2.21v15.25c0,.14.07.21.2.21Z"/>
        <path class="st1" d="M312.95,773.25c-1.69-.86-3-2.07-3.92-3.65-.92-1.57-1.38-3.4-1.38-5.47v-18.31c0-.19.05-.34.16-.46.11-.11.26-.17.45-.17h6.42c.19,0,.34.06.45.17.11.11.16.26.16.46v18.31c0,1.13.32,2.04.95,2.71.64.68,1.48,1.01,2.54,1.01s1.86-.34,2.5-1.04c.64-.69.95-1.59.95-2.69v-18.31c0-.19.05-.34.16-.46.11-.11.26-.17.45-.17h6.42c.19,0,.34.06.45.17.11.11.16.26.16.46v18.31c0,2.07-.46,3.89-1.38,5.47-.92,1.58-2.22,2.79-3.9,3.65-1.68.86-3.61,1.28-5.81,1.28s-4.14-.43-5.83-1.28Z"/>
        <path class="st1" d="M358.44,746.38c1.46.79,2.59,1.91,3.39,3.36.8,1.45,1.2,3.11,1.2,4.99s-.42,3.48-1.26,4.89c-.84,1.41-2.02,2.5-3.53,3.27-1.52.77-3.26,1.16-5.24,1.16h-4.3c-.14,0-.2.07-.2.21v9.32c0,.19-.05.35-.16.46-.11.11-.26.17-.45.17h-6.42c-.19,0-.34-.05-.45-.17-.11-.11-.16-.26-.16-.46v-27.76c0-.19.05-.34.16-.46.11-.11.26-.17.45-.17h11.9c1.92,0,3.61.39,5.08,1.18ZM354.53,757.02c.61-.54.91-1.25.91-2.13s-.3-1.64-.91-2.2c-.61-.55-1.41-.83-2.42-.83h-3.41c-.14,0-.2.07-.2.21v5.55c0,.14.07.21.2.21h3.41c1,0,1.81-.27,2.42-.81Z"/>
        <path class="st1" d="M380.49,773.66l-.89-3.23c-.05-.11-.12-.17-.2-.17h-8.61c-.08,0-.15.06-.2.17l-.89,3.23c-.08.36-.31.54-.69.54h-6.94c-.49,0-.66-.23-.53-.7l8.57-27.8c.11-.33.34-.5.69-.5h8.61c.35,0,.58.17.69.5l8.57,27.8c.03.06.04.14.04.25,0,.3-.19.46-.57.46h-6.94c-.38,0-.61-.18-.69-.54ZM372.53,764.3h5.08c.16,0,.22-.08.16-.25l-2.6-9.28c-.03-.08-.07-.12-.12-.12s-.1.04-.12.12l-2.56,9.28c-.03.17.03.25.16.25Z"/>
        <path class="st1" d="M393.93,773.39c-1.71-.76-3.02-1.84-3.96-3.25s-1.4-3.04-1.4-4.89v-.58c0-.19.05-.34.16-.46.11-.11.26-.17.45-.17h6.29c.19,0,.34.06.45.17.11.11.16.26.16.46v.25c0,.77.4,1.46,1.2,2.05.8.59,1.86.89,3.19.89,1,0,1.72-.21,2.15-.64.43-.43.65-.9.65-1.43,0-.61-.27-1.06-.81-1.37-.54-.3-1.53-.68-2.96-1.12l-1.18-.33c-2.68-.83-4.93-1.93-6.74-3.31-1.81-1.38-2.72-3.38-2.72-6.01,0-1.74.46-3.28,1.38-4.62.92-1.34,2.19-2.37,3.8-3.09,1.61-.72,3.42-1.08,5.42-1.08,2.11,0,4.03.4,5.75,1.2,1.72.8,3.07,1.93,4.06,3.4.99,1.46,1.48,3.14,1.48,5.01v.37c0,.19-.05.35-.16.46-.11.11-.26.17-.45.17h-6.29c-.19,0-.34-.05-.45-.17-.11-.11-.16-.26-.16-.46v-.04c0-.83-.37-1.58-1.1-2.26-.73-.68-1.72-1.01-2.96-1.01-.87,0-1.55.18-2.05.54-.5.36-.75.86-.75,1.49,0,.5.18.92.55,1.26.37.35.93.68,1.69.99.76.32,1.92.72,3.49,1.22.22.08,1.17.38,2.86.89,1.69.51,3.11,1.44,4.24,2.78,1.14,1.34,1.71,2.96,1.71,4.87s-.46,3.45-1.38,4.79c-.92,1.34-2.21,2.37-3.86,3.09-1.65.72-3.57,1.08-5.77,1.08s-4.26-.38-5.97-1.14Z"/>
        <path class="st1" d="M418.38,773.39c-1.71-.76-3.02-1.84-3.96-3.25s-1.4-3.04-1.4-4.89v-.58c0-.19.05-.34.16-.46.11-.11.26-.17.45-.17h6.29c.19,0,.34.06.45.17.11.11.16.26.16.46v.25c0,.77.4,1.46,1.2,2.05.8.59,1.86.89,3.19.89,1,0,1.72-.21,2.15-.64.43-.43.65-.9.65-1.43,0-.61-.27-1.06-.81-1.37-.54-.3-1.53-.68-2.96-1.12l-1.18-.33c-2.68-.83-4.93-1.93-6.74-3.31-1.81-1.38-2.72-3.38-2.72-6.01,0-1.74.46-3.28,1.38-4.62.92-1.34,2.19-2.37,3.8-3.09,1.61-.72,3.42-1.08,5.42-1.08,2.11,0,4.03.4,5.75,1.2,1.72.8,3.07,1.93,4.06,3.4.99,1.46,1.48,3.14,1.48,5.01v.37c0,.19-.05.35-.16.46-.11.11-.26.17-.45.17h-6.29c-.19,0-.34-.05-.45-.17-.11-.11-.16-.26-.16-.46v-.04c0-.83-.37-1.58-1.1-2.26-.73-.68-1.72-1.01-2.96-1.01-.87,0-1.55.18-2.05.54-.5.36-.75.86-.75,1.49,0,.5.18.92.55,1.26.37.35.93.68,1.69.99.76.32,1.92.72,3.49,1.22.22.08,1.17.38,2.86.89,1.69.51,3.11,1.44,4.24,2.78,1.14,1.34,1.71,2.96,1.71,4.87s-.46,3.45-1.38,4.79c-.92,1.34-2.21,2.37-3.86,3.09-1.65.72-3.57,1.08-5.77,1.08s-4.26-.38-5.97-1.14Z"/>
        <path class="st1" d="M458.45,751.7c-.11.11-.26.17-.45.17h-12.14c-.14,0-.2.07-.2.21v3.89c0,.14.07.21.2.21h7.51c.19,0,.34.06.45.17.11.11.16.26.16.46v5.39c0,.19-.05.35-.16.46-.11.11-.26.17-.45.17h-7.51c-.14,0-.2.07-.2.21v4.31c0,.14.07.21.2.21h12.14c.19,0,.34.06.45.17.11.11.16.26.16.46v5.43c0,.19-.05.35-.16.46-.11.11-.26.17-.45.17h-19.37c-.19,0-.34-.05-.45-.17-.11-.11-.16-.26-.16-.46v-27.76c0-.19.05-.34.16-.46.11-.11.26-.17.45-.17h19.37c.19,0,.34.06.45.17.11.11.16.26.16.46v5.43c0,.19-.05.35-.16.46ZM444.99,742.52c-.1-.15-.09-.32.02-.52l1.99-3.81c.13-.3.38-.46.73-.46h5.48c.32,0,.49.12.49.37,0,.11-.04.23-.12.37l-2.84,3.89c-.16.25-.41.37-.73.37h-4.55c-.22,0-.37-.08-.47-.23Z"/>
      </g>
      <g>
        <path class="st7" d="M172.84,797.16v5.43c0,.19-.05.34-.16.46-.11.11-.26.17-.45.17h-19.37c-.19,0-.34-.06-.45-.17-.11-.11-.16-.26-.16-.46v-27.76c0-.19.05-.35.16-.46.11-.11.26-.17.45-.17h19.37c.19,0,.34.05.45.17.11.11.16.26.16.46v5.43c0,.19-.05.34-.16.46-.11.11-.26.17-.45.17h-12.14c-.14,0-.2.07-.2.21v4.31c0,.14.07.21.2.21h7.51c.19,0,.34.05.45.17.11.11.16.26.16.46v5.39c0,.19-.05.34-.16.46-.11.11-.26.17-.45.17h-7.51c-.14,0-.2.07-.2.21v3.89c0,.14.07.21.2.21h12.14c.19,0,.34.05.45.17.11.11.16.26.16.46ZM159.68,805.65h4.55c.33,0,.57.12.73.37l2.84,3.89c.08.14.12.26.12.37,0,.25-.16.37-.49.37h-5.48c-.35,0-.6-.15-.73-.46l-1.99-3.81c-.11-.19-.12-.37-.02-.52.09-.15.25-.23.47-.23Z"/>
        <path class="st7" d="M186.24,773.87c2.22,0,4.18.42,5.87,1.26,1.69.84,3,2.02,3.94,3.54s1.4,3.27,1.4,5.26c0,.25-.2.39-.61.41l-6.42.33c-.19.03-.34,0-.45-.08-.11-.08-.16-.21-.16-.37,0-1.11-.32-2-.97-2.67-.65-.68-1.52-1.01-2.6-1.01s-1.95.34-2.6,1.01c-.65.68-.97,1.57-.97,2.67v8.91c0,1.13.32,2.04.97,2.71.65.68,1.52,1.01,2.6,1.01s1.95-.34,2.6-1.01c.65-.68.97-1.58.97-2.71,0-.3.16-.46.49-.46h.12l6.42.41c.41.06.61.21.61.46,0,1.99-.47,3.74-1.4,5.24s-2.25,2.67-3.94,3.5c-1.69.83-3.65,1.24-5.87,1.24s-4.18-.44-5.87-1.33c-1.69-.88-3-2.13-3.94-3.73-.93-1.6-1.4-3.45-1.4-5.55v-8.37c0-2.13.47-4,1.4-5.61s2.25-2.87,3.94-3.75c1.69-.88,3.65-1.33,5.87-1.33Z"/>
        <path class="st7" d="M214.5,802.59v-10.15c0-.14-.07-.21-.2-.21h-6.33c-.14,0-.2.07-.2.21v10.15c0,.19-.05.34-.16.46-.11.11-.26.17-.45.17h-6.42c-.19,0-.34-.06-.45-.17-.11-.11-.16-.26-.16-.46v-27.76c0-.19.05-.35.16-.46.11-.11.26-.17.45-.17h6.42c.19,0,.34.05.45.17.11.11.16.26.16.46v10.52c0,.14.07.21.2.21h6.33c.14,0,.2-.07.2-.21v-10.52c0-.19.05-.35.16-.46.11-.11.26-.17.45-.17h6.42c.19,0,.34.05.45.17.11.11.16.26.16.46v27.76c0,.19-.05.34-.16.46-.11.11-.26.17-.45.17h-6.42c-.19,0-.34-.06-.45-.17-.11-.11-.16-.26-.16-.46Z"/>
        <path class="st7" d="M235.94,773.71c2.27,0,4.27.46,5.99,1.39,1.72.93,3.05,2.22,4,3.9.95,1.67,1.42,3.61,1.42,5.82v7.79c0,2.16-.47,4.06-1.42,5.72-.95,1.66-2.28,2.94-4,3.85-1.72.91-3.72,1.37-5.99,1.37s-4.23-.46-5.95-1.37c-1.72-.91-3.05-2.2-4-3.85-.95-1.66-1.42-3.56-1.42-5.72v-7.79c0-2.21.47-4.15,1.42-5.82.95-1.67,2.28-2.97,4-3.9,1.72-.92,3.7-1.39,5.95-1.39ZM235.94,780.38c-1.11,0-2.01.38-2.7,1.14-.69.76-1.04,1.77-1.04,3.04v8.12c0,1.27.35,2.29,1.04,3.05.69.76,1.59,1.14,2.7,1.14s2.05-.38,2.74-1.14c.69-.76,1.04-1.78,1.04-3.05v-8.12c0-1.27-.35-2.29-1.04-3.04-.69-.76-1.6-1.14-2.74-1.14Z"/>
        <path class="st7" d="M260.91,773.87c2.19,0,4.11.36,5.77,1.08,1.65.72,2.94,1.75,3.86,3.09.92,1.34,1.38,2.93,1.38,4.79s-.57,3.53-1.71,4.87c-1.14,1.34-2.55,2.26-4.24,2.78-1.69.51-2.65.81-2.86.89-1.57.5-2.73.91-3.49,1.22-.76.32-1.32.65-1.69.99-.37.35-.55.77-.55,1.26,0,.64.25,1.13.75,1.49.5.36,1.18.54,2.05.54,1.24,0,2.23-.34,2.96-1.01.73-.68,1.1-1.43,1.1-2.26v-.04c0-.19.05-.35.16-.46.11-.11.26-.17.45-.17h6.29c.19,0,.34.05.45.17.11.11.16.26.16.46v.37c0,1.88-.49,3.55-1.48,5.01-.99,1.46-2.34,2.6-4.06,3.4-1.72.8-3.63,1.2-5.75,1.2s-3.81-.36-5.42-1.08c-1.61-.72-2.88-1.75-3.8-3.09-.92-1.34-1.38-2.88-1.38-4.62,0-2.62.91-4.63,2.72-6.01,1.81-1.38,4.06-2.49,6.74-3.31l1.18-.33c1.43-.44,2.42-.82,2.96-1.12.54-.3.81-.76.81-1.37,0-.53-.22-1-.65-1.43-.43-.43-1.15-.64-2.15-.64-1.33,0-2.39.3-3.19.89-.8.59-1.2,1.28-1.2,2.05v.25c0,.19-.05.34-.16.46-.11.11-.26.17-.45.17h-6.29c-.19,0-.34-.06-.45-.17-.11-.11-.16-.26-.16-.46v-.58c0-1.85.47-3.48,1.4-4.89s2.25-2.49,3.96-3.25,3.7-1.14,5.97-1.14Z"/>
        <path class="st7" d="M283.32,774.2h10.44c2.19,0,4.13.39,5.83,1.16,1.69.77,3,1.86,3.92,3.27.92,1.41,1.38,3.04,1.38,4.89v10.36c0,1.85-.46,3.48-1.38,4.89-.92,1.41-2.23,2.5-3.92,3.27-1.69.77-3.63,1.16-5.83,1.16h-10.44c-.19,0-.34-.06-.45-.17-.11-.11-.16-.26-.16-.46v-27.76c0-.19.05-.35.16-.46.11-.11.26-.17.45-.17ZM290.35,781.08v15.25c0,.14.07.21.2.21h3.45c.97,0,1.76-.37,2.35-1.1.6-.73.89-1.69.89-2.88v-7.71c-.03-1.19-.34-2.15-.93-2.88-.6-.73-1.35-1.1-2.27-1.1h-3.49c-.14,0-.2.07-.2.21Z"/>
        <path class="st7" d="M318.77,773.87c2.19,0,4.13.43,5.81,1.28,1.68.86,2.98,2.07,3.9,3.65.92,1.57,1.38,3.4,1.38,5.47v18.31c0,.19-.05.34-.16.46-.11.11-.26.17-.45.17h-6.42c-.19,0-.34-.06-.45-.17-.11-.11-.16-.26-.16-.46v-18.31c0-1.11-.32-2-.95-2.69-.64-.69-1.47-1.04-2.5-1.04s-1.9.34-2.54,1.01c-.64.68-.95,1.58-.95,2.71v18.31c0,.19-.05.34-.16.46-.11.11-.26.17-.45.17h-6.42c-.19,0-.34-.06-.45-.17-.11-.11-.16-.26-.16-.46v-18.31c0-2.07.46-3.89,1.38-5.47.92-1.58,2.23-2.79,3.92-3.65,1.69-.86,3.63-1.28,5.83-1.28Z"/>
        <path class="st7" d="M353.37,803.21h-11.9c-.19,0-.34-.06-.45-.17-.11-.11-.16-.26-.16-.46v-27.76c0-.19.05-.35.16-.46.11-.11.26-.17.45-.17h6.42c.19,0,.34.05.45.17.11.11.16.26.16.46v9.32c0,.14.07.21.2.21h4.3c1.98,0,3.72.39,5.24,1.16,1.52.77,2.69,1.86,3.53,3.27.84,1.41,1.26,3.04,1.26,4.89s-.4,3.54-1.2,4.99c-.8,1.45-1.93,2.57-3.39,3.36s-3.15,1.18-5.08,1.18ZM352.11,790.57h-3.41c-.14,0-.2.07-.2.21v5.55c0,.14.07.21.2.21h3.41c1,0,1.81-.28,2.42-.83.61-.55.91-1.28.91-2.2s-.3-1.6-.91-2.13c-.61-.54-1.41-.81-2.42-.81Z"/>
        <path class="st7" d="M381.18,774.2h6.94c.38,0,.57.15.57.46,0,.11-.01.19-.04.25l-8.57,27.8c-.11.33-.34.5-.69.5h-8.61c-.35,0-.58-.17-.69-.5l-8.57-27.8c-.14-.47.04-.7.53-.7h6.94c.38,0,.61.18.69.54l.89,3.23c.05.11.12.17.2.17h8.61c.08,0,.15-.06.2-.17l.89-3.23c.08-.36.31-.54.69-.54ZM372.37,784.35l2.56,9.28c.03.08.07.12.12.12s.09-.04.12-.12l2.6-9.28c.05-.17,0-.25-.16-.25h-5.08c-.14,0-.19.08-.16.25Z"/>
        <path class="st7" d="M399.9,773.87c2.19,0,4.11.36,5.77,1.08,1.65.72,2.94,1.75,3.86,3.09.92,1.34,1.38,2.93,1.38,4.79s-.57,3.53-1.71,4.87c-1.14,1.34-2.55,2.26-4.24,2.78-1.69.51-2.65.81-2.86.89-1.57.5-2.73.91-3.49,1.22-.76.32-1.32.65-1.69.99-.37.35-.55.77-.55,1.26,0,.64.25,1.13.75,1.49.5.36,1.18.54,2.05.54,1.24,0,2.23-.34,2.96-1.01.73-.68,1.1-1.43,1.1-2.26v-.04c0-.19.05-.35.16-.46.11-.11.26-.17.45-.17h6.29c.19,0,.34.05.45.17.11.11.16.26.16.46v.37c0,1.88-.49,3.55-1.48,5.01-.99,1.46-2.34,2.6-4.06,3.4-1.72.8-3.63,1.2-5.75,1.2s-3.81-.36-5.42-1.08c-1.61-.72-2.88-1.75-3.8-3.09-.92-1.34-1.38-2.88-1.38-4.62,0-2.62.91-4.63,2.72-6.01,1.81-1.38,4.06-2.49,6.74-3.31l1.18-.33c1.43-.44,2.42-.82,2.96-1.12.54-.3.81-.76.81-1.37,0-.53-.22-1-.65-1.43-.43-.43-1.15-.64-2.15-.64-1.33,0-2.39.3-3.19.89-.8.59-1.2,1.28-1.2,2.05v.25c0,.19-.05.34-.16.46-.11.11-.26.17-.45.17h-6.29c-.19,0-.34-.06-.45-.17-.11-.11-.16-.26-.16-.46v-.58c0-1.85.47-3.48,1.4-4.89s2.25-2.49,3.96-3.25,3.7-1.14,5.97-1.14Z"/>
        <path class="st7" d="M424.35,773.87c2.19,0,4.11.36,5.77,1.08,1.65.72,2.94,1.75,3.86,3.09.92,1.34,1.38,2.93,1.38,4.79s-.57,3.53-1.71,4.87c-1.14,1.34-2.55,2.26-4.24,2.78-1.69.51-2.65.81-2.86.89-1.57.5-2.73.91-3.49,1.22-.76.32-1.32.65-1.69.99-.37.35-.55.77-.55,1.26,0,.64.25,1.13.75,1.49.5.36,1.18.54,2.05.54,1.24,0,2.23-.34,2.96-1.01.73-.68,1.1-1.43,1.1-2.26v-.04c0-.19.05-.35.16-.46.11-.11.26-.17.45-.17h6.29c.19,0,.34.05.45.17.11.11.16.26.16.46v.37c0,1.88-.49,3.55-1.48,5.01-.99,1.46-2.34,2.6-4.06,3.4-1.72.8-3.63,1.2-5.75,1.2s-3.81-.36-5.42-1.08c-1.61-.72-2.88-1.75-3.8-3.09-.92-1.34-1.38-2.88-1.38-4.62,0-2.62.91-4.63,2.72-6.01,1.81-1.38,4.06-2.49,6.74-3.31l1.18-.33c1.43-.44,2.42-.82,2.96-1.12.54-.3.81-.76.81-1.37,0-.53-.22-1-.65-1.43-.43-.43-1.15-.64-2.15-.64-1.33,0-2.39.3-3.19.89-.8.59-1.2,1.28-1.2,2.05v.25c0,.19-.05.34-.16.46-.11.11-.26.17-.45.17h-6.29c-.19,0-.34-.06-.45-.17-.11-.11-.16-.26-.16-.46v-.58c0-1.85.47-3.48,1.4-4.89s2.25-2.49,3.96-3.25,3.7-1.14,5.97-1.14Z"/>
        <path class="st7" d="M458.62,797.16v5.43c0,.19-.05.34-.16.46-.11.11-.26.17-.45.17h-19.37c-.19,0-.34-.06-.45-.17-.11-.11-.16-.26-.16-.46v-27.76c0-.19.05-.35.16-.46.11-.11.26-.17.45-.17h19.37c.19,0,.34.05.45.17.11.11.16.26.16.46v5.43c0,.19-.05.34-.16.46-.11.11-.26.17-.45.17h-12.14c-.14,0-.2.07-.2.21v4.31c0,.14.07.21.2.21h7.51c.19,0,.34.05.45.17.11.11.16.26.16.46v5.39c0,.19-.05.34-.16.46-.11.11-.26.17-.45.17h-7.51c-.14,0-.2.07-.2.21v3.89c0,.14.07.21.2.21h12.14c.19,0,.34.05.45.17.11.11.16.26.16.46ZM445.46,805.65h4.55c.33,0,.57.12.73.37l2.84,3.89c.08.14.12.26.12.37,0,.25-.16.37-.49.37h-5.48c-.35,0-.6-.15-.73-.46l-1.99-3.81c-.11-.19-.12-.37-.02-.52.09-.15.25-.23.47-.23Z"/>
      </g>
      <g>
        <path class="st9" d="M446.24,277.79c-23.49.47-42.46,19.72-42.46,43.33s18.97,42.86,42.46,43.33v-86.66Z"/>
        <path class="st9" d="M447.99,277.79v86.66c23.49-.47,42.46-19.72,42.46-43.33s-18.97-42.86-42.46-43.33Z"/>
      </g>
      <g>
        <path class="st9" d="M403.79,427.15c.47,23.49,19.72,42.46,43.33,42.46,23.6,0,42.86-18.97,43.33-42.46h-86.66Z"/>
        <path class="st9" d="M403.79,425.4h86.66c-.47-23.49-19.72-42.46-43.33-42.46-23.6,0-42.86,18.97-43.33,42.46Z"/>
      </g>
      <g>
        <path class="st6" d="M231.9,406.27h-77.4c-67.36,0-122.17,54.39-122.17,121.24v140.21c0,.22.18.4.4.4h0c.22,0,.4-.18.4-.4v-140.21c0-66.41,54.44-120.44,121.37-120.44h77.4s0-.8,0-.8Z"/>
        <path class="st6" d="M231.9,414.84h-77.4c-62.6,0-113.53,50.54-113.53,112.67v134.57c0,.22.18.4.4.4h0c.22,0,.4-.18.4-.4v-134.57c0-61.68,50.57-111.87,112.73-111.87h77.4s0-.8,0-.8Z"/>
        <path class="st6" d="M231.9,423.41h-77.4c-57.84,0-104.89,46.7-104.89,104.1v134.27h.8v-134.27c0-56.96,46.7-103.3,104.09-103.3h77.4s0-.8,0-.8Z"/>
        <path class="st6" d="M230.88,431.98h-76.38c-53.08,0-96.26,42.85-96.26,95.53v136.11s.8,0,.8,0c0,0,0-136.11,0-136.11,0-52.23,42.82-94.73,95.46-94.73h76.38s0-.8,0-.8Z"/>
        <path class="st6" d="M230.88,440.55h-76.38c-48.31,0-87.62,39.01-87.62,86.96v134.63c0,.22.18.4.4.4h0c.22,0,.4-.18.4-.4v-134.63c0-47.51,38.95-86.16,86.82-86.16h76.38s0-.8,0-.8Z"/>
        <path class="st6" d="M230.88,449.12h-76.38c-43.55,0-78.98,35.16-78.98,78.39v142.13h.8v-142.13c0-42.78,35.07-77.59,78.18-77.59h76.38s0-.8,0-.8Z"/>
        <path class="st6" d="M231.9,457.7h-77.4c-38.79,0-70.35,31.32-70.35,69.81v136.02c0,.22.18.4.4.4h0c.22,0,.4-.18.4-.4v-136.02c0-38.06,31.2-69.02,69.55-69.02h77.4s0-.8,0-.8Z"/>
        <path class="st6" d="M230.88,466.27h-76.38c-34.03,0-61.71,27.47-61.71,61.24v133.32s.8,0,.8,0v-133.32c0-33.33,27.32-60.44,60.91-60.44h76.38s0-.8,0-.8Z"/>
      </g>
      <rect class="st5" x="168.38" y="161.64" width="84.93" height="84.93"/>
    </g>
  </g>
</svg>